<svg xmlns="http://www.w3.org/2000/svg" xmlns:xlink="http://www.w3.org/1999/xlink" width="250" zoomAndPan="magnify" viewBox="0 0 187.5 187.499992" height="250" preserveAspectRatio="xMidYMid meet" version="1.0"><defs><clipPath id="dc420ee883"><path d="M 11.71875 159 L 41 159 L 41 175 L 11.71875 175 Z M 11.71875 159 " clip-rule="nonzero"/></clipPath><clipPath id="fdc2c0a73d"><path d="M 24 113 L 83 113 L 83 177.570312 L 24 177.570312 Z M 24 113 " clip-rule="nonzero"/></clipPath></defs><path fill="#ffffff" d="M 0 0 L 187 0 L 187 187 L 0 187 Z M 0 0 " fill-opacity="1" fill-rule="nonzero"/><path fill="#161d2d" d="M 0 0 L 187 0 L 187 187 L 0 187 Z M 0 0 " fill-opacity="1" fill-rule="nonzero"/><g clip-path="url(#dc420ee883)"><path fill="#f15a24" d="M 40.351562 173.042969 L 11.71875 174.03125 L 26.394531 159.144531 Z M 40.351562 173.042969 " fill-opacity="1" fill-rule="nonzero"/></g><path fill="#f15a24" d="M 170.226562 99.214844 C 164.910156 140.582031 126.972656 169.8125 85.5 164.496094 C 44.027344 159.195312 14.726562 121.351562 20.042969 79.984375 C 25.367188 38.617188 63.296875 9.386719 104.777344 14.695312 C 146.25 20.003906 175.558594 57.847656 170.226562 99.214844 " fill-opacity="1" fill-rule="nonzero"/><path fill="#999999" d="M 114.441406 68.132812 C 119.414062 73.40625 114.507812 85.878906 114.507812 85.878906 C 114.507812 85.878906 109.652344 103.511719 81.871094 126.378906 L 76.675781 121.304688 L 111.957031 85.34375 L 112.632812 84.425781 C 113.574219 82.898438 114.347656 68.027344 114.441406 68.132812 " fill-opacity="1" fill-rule="nonzero"/><path stroke-linecap="round" transform="matrix(0.622627, 0, 0, 0.621046, 11.718614, 13.769666)" fill="none" stroke-linejoin="round" d="M 164.982892 87.534831 C 172.969466 96.026051 165.089546 116.10936 165.089546 116.10936 C 165.089546 116.10936 157.291187 144.501485 112.671771 181.321933 L 104.327589 173.151492 L 160.992741 115.247659 L 162.078112 113.769557 C 163.590103 111.310248 164.83232 87.365006 164.982892 87.534831 Z M 164.982892 87.534831 " stroke="#ffffff" stroke-width="1.918" stroke-opacity="1" stroke-miterlimit="4"/><path stroke-linecap="round" transform="matrix(0.622627, 0, 0, 0.621046, 11.718614, 13.769666)" fill-opacity="1" fill="#666666" fill-rule="nonzero" stroke-linejoin="round" d="M 92.099912 161.112829 L 164.857415 87.320978 C 168.55897 91.704964 169.336923 96.434888 168.270374 103.171256 C 167.548884 107.831993 159.487024 117.147176 159.487024 117.147176 L 104.327589 173.151492 " stroke="#ffffff" stroke-width="1.201" stroke-opacity="1" stroke-miterlimit="4"/><path fill="#ff931e" d="M 114.441406 68.164062 L 69.0625 113.828125 L 69.152344 113.738281 L 69.136719 113.746094 L 57.878906 102.679688 C 81.351562 73.546875 96.53125 68.117188 96.53125 68.117188 C 96.53125 68.117188 106.421875 64.269531 113.46875 67.253906 C 114.011719 67.542969 114.246094 67.710938 114.441406 68.164062 " fill-opacity="1" fill-rule="nonzero"/><path stroke-linecap="round" transform="matrix(0.622627, 0, 0, 0.621046, 11.718614, 13.769666)" fill="none" stroke-linejoin="round" d="M 164.982892 87.585149 L 92.099912 161.112829 L 92.24421 160.968163 L 92.219115 160.980743 L 74.137962 143.16176 C 111.837353 96.252484 136.217422 87.509672 136.217422 87.509672 C 136.217422 87.509672 152.102737 81.314226 163.42071 86.119627 C 164.292771 86.585072 164.6692 86.855533 164.982892 87.585149 Z M 164.982892 87.585149 " stroke="#ffffff" stroke-width="1.918" stroke-opacity="1" stroke-miterlimit="4"/><path fill="#999999" d="M 81.871094 126.378906 C 71.039062 135.269531 57.183594 149.246094 38.351562 158.988281 L 42.542969 176.851562 L 24.785156 159.40625 L 69.0625 113.828125 " fill-opacity="1" fill-rule="nonzero"/><g clip-path="url(#fdc2c0a73d)"><path stroke-linecap="round" transform="matrix(0.622627, 0, 0, 0.621046, 11.718614, 13.769666)" fill="none" stroke-linejoin="round" d="M 112.671771 181.321933 C 95.274466 195.637502 73.021222 218.142381 42.775131 233.829125 L 49.506941 262.592348 L 20.98615 234.502133 L 92.099912 161.112829 " stroke="#ffffff" stroke-width="1.918" stroke-opacity="1" stroke-miterlimit="4"/></g><path stroke-linecap="round" transform="matrix(0.622627, 0, 0, 0.621046, 11.718614, 13.769666)" fill-opacity="1" fill="#f15a24" fill-rule="nonzero" stroke-linejoin="round" d="M 74.621047 143.400772 L 92.288127 160.999612 L 51.476921 169.843061 L 74.23207 143.079992 L 74.62732 143.400772 Z M 74.621047 143.400772 " stroke="#ffffff" stroke-width="1.918" stroke-opacity="1" stroke-miterlimit="4"/><path fill="#999999" d="M 110.105469 54.910156 C 109.027344 64.625 116.039062 73.371094 125.777344 74.453125 C 135.507812 75.53125 144.28125 68.53125 145.371094 58.820312 C 146.457031 49.113281 139.433594 40.359375 129.695312 39.277344 C 119.957031 38.207031 111.191406 45.195312 110.105469 54.910156 " fill-opacity="1" fill-rule="nonzero"/><path stroke-linecap="round" transform="matrix(0.622627, 0, 0, 0.621046, 11.718614, 13.769666)" fill="none" stroke-linejoin="round" d="M 158.01895 66.243882 C 156.287376 81.886597 167.548884 95.969443 183.18952 97.711716 C 198.817609 99.447699 212.908611 88.17639 214.659007 72.539964 C 216.403129 56.909829 205.122799 42.814403 189.482163 41.07213 C 173.841527 39.348727 159.763072 50.601167 158.01895 66.243882 Z M 158.01895 66.243882 " stroke="#ffffff" stroke-width="1.918" stroke-opacity="1" stroke-miterlimit="4"/><path fill="#666666" d="M 142.824219 66.644531 C 146.09375 61.875 145.925781 54.742188 145.265625 52.628906 C 144.460938 50.039062 142.65625 45.828125 139.511719 43.640625 L 122.882812 58.921875 C 122.882812 58.921875 135.664062 72.625 135.996094 72.667969 C 136.132812 72.683594 139.835938 70.992188 142.824219 66.644531 " fill-opacity="1" fill-rule="nonzero"/><path stroke-linecap="round" transform="matrix(0.622627, 0, 0, 0.621046, 11.718614, 13.769666)" fill="none" stroke-linejoin="round" d="M 210.568475 85.13842 C 215.819664 77.458583 215.549889 65.973421 214.489614 62.570643 C 213.197207 58.40051 210.298701 51.620113 205.248275 48.097829 L 178.540619 72.703499 C 178.540619 72.703499 199.068561 94.768093 199.601836 94.83728 C 199.82142 94.86244 205.769002 92.138959 210.568475 85.13842 Z M 205.179263 65.860204 C 205.179263 65.860204 207.738982 72.168867 204.489143 77.074905 Z M 205.179263 65.860204 " stroke="#ffffff" stroke-width="1.918" stroke-opacity="1" stroke-miterlimit="4"/><path fill="#666666" d="M 77.070312 121.308594 L 58.714844 124.5625 L 69.796875 113.082031 " fill-opacity="1" fill-rule="nonzero"/><path stroke-linecap="round" transform="matrix(0.622627, 0, 0, 0.621046, 11.718614, 13.769666)" fill="none" stroke-linejoin="round" d="M 104.961245 173.157782 L 75.48056 178.39718 L 93.27939 159.911478 M 75.304893 143.532857 L 112.790974 178.799726 " stroke="#ffffff" stroke-width="1.918" stroke-opacity="1" stroke-miterlimit="4"/></svg>