<svg xmlns="http://www.w3.org/2000/svg" xmlns:xlink="http://www.w3.org/1999/xlink" width="250" zoomAndPan="magnify" viewBox="0 0 187.5 187.499992" height="250" preserveAspectRatio="xMidYMid meet" version="1.0"><defs><clipPath id="36ca7f4c63"><path d="M 9.085938 18.699219 L 178.136719 18.699219 L 178.136719 164.5625 L 9.085938 164.5625 Z M 9.085938 18.699219 " clip-rule="nonzero"/></clipPath></defs><path fill="#ffffff" d="M 0 0 L 187 0 L 187 187 L 0 187 Z M 0 0 " fill-opacity="1" fill-rule="nonzero"/><path fill="#161d2d" d="M 0 0 L 187 0 L 187 187 L 0 187 Z M 0 0 " fill-opacity="1" fill-rule="nonzero"/><g clip-path="url(#36ca7f4c63)"><path fill="#2bb5e2" d="M 169.011719 118.117188 C 169.273438 119.957031 169.390625 121.824219 169.390625 123.71875 C 169.390625 146.269531 151.113281 164.5625 128.585938 164.5625 C 118.296875 164.5625 108.882812 160.738281 101.683594 154.410156 C 92.707031 160.097656 81.808594 162.753906 70.46875 161.207031 C 51.757812 158.667969 37.1875 145.308594 32.144531 128.269531 C 18.824219 124.390625 9.089844 112.082031 9.089844 97.464844 C 9.089844 80.71875 21.914062 67.007812 38.234375 65.523438 L 38.234375 65.375 C 38.234375 54.085938 47.359375 44.957031 58.636719 44.957031 C 62.046875 44.957031 65.28125 45.800781 68.109375 47.289062 C 75.164062 30.484375 91.746094 18.699219 111.097656 18.699219 C 135.960938 18.699219 156.1875 38.15625 157.585938 62.691406 C 169.710938 68.207031 178.132812 80.371094 178.132812 94.546875 C 178.132812 103.621094 174.664062 111.90625 169.011719 118.117188 Z M 169.011719 118.117188 " fill-opacity="1" fill-rule="nonzero"/></g><path fill="#293b6d" d="M 50.5625 94.625 C 46.148438 93.589844 41.152344 92.414062 41.152344 90.171875 C 41.152344 88.105469 44.890625 85.796875 49.894531 85.796875 C 55.722656 85.796875 59.730469 88.804688 59.757812 88.824219 C 61.035156 89.816406 62.859375 89.589844 63.847656 88.324219 C 64.839844 87.050781 64.617188 85.21875 63.347656 84.226562 C 63.125 84.050781 57.804688 79.960938 49.894531 79.960938 C 41.722656 79.960938 35.320312 84.445312 35.320312 90.171875 C 35.320312 97.042969 43.035156 98.855469 49.226562 100.304688 C 53.640625 101.339844 58.636719 102.515625 58.636719 104.757812 C 58.636719 106.824219 54.898438 109.132812 49.894531 109.132812 C 44.101562 109.132812 40.105469 106.160156 40.015625 106.097656 C 38.753906 105.117188 36.925781 105.34375 35.941406 106.609375 C 34.949219 107.878906 35.171875 109.710938 36.441406 110.703125 C 36.664062 110.878906 41.984375 114.96875 49.894531 114.96875 C 58.066406 114.96875 64.464844 110.484375 64.464844 104.757812 C 64.464844 97.886719 56.753906 96.078125 50.5625 94.625 Z M 50.5625 94.625 " fill-opacity="1" fill-rule="nonzero"/><path fill="#293b6d" d="M 143.824219 94.625 C 139.414062 93.589844 134.414062 92.414062 134.414062 90.171875 C 134.414062 88.105469 138.152344 85.796875 143.160156 85.796875 C 148.988281 85.796875 152.996094 88.804688 153.019531 88.824219 C 154.296875 89.816406 156.117188 89.589844 157.113281 88.324219 C 158.105469 87.050781 157.878906 85.21875 156.613281 84.226562 C 156.386719 84.050781 151.066406 79.960938 143.160156 79.960938 C 134.984375 79.960938 128.585938 84.445312 128.585938 90.171875 C 128.585938 97.042969 136.296875 98.855469 142.492188 100.304688 C 146.902344 101.339844 151.902344 102.515625 151.902344 104.757812 C 151.902344 106.824219 148.164062 109.132812 143.160156 109.132812 C 137.363281 109.132812 133.371094 106.160156 133.28125 106.097656 C 132.015625 105.117188 130.191406 105.34375 129.203125 106.609375 C 128.210938 107.878906 128.4375 109.710938 129.703125 110.703125 C 129.929688 110.878906 135.25 114.96875 143.160156 114.96875 C 151.332031 114.96875 157.730469 110.484375 157.730469 104.757812 C 157.730469 97.886719 150.019531 96.078125 143.824219 94.625 Z M 143.824219 94.625 " fill-opacity="1" fill-rule="nonzero"/><path fill="#293b6d" d="M 90.695312 91.628906 C 89.5 91.628906 88.476562 92.355469 88.027344 93.386719 C 86.253906 92.292969 84.1875 91.628906 81.953125 91.628906 C 75.523438 91.628906 70.296875 96.863281 70.296875 103.300781 C 70.296875 109.734375 75.523438 114.96875 81.953125 114.96875 C 84.1875 114.96875 86.253906 114.304688 88.027344 113.210938 C 88.476562 114.246094 89.5 114.96875 90.695312 114.96875 C 92.308594 114.96875 93.613281 113.664062 93.613281 112.050781 L 93.613281 94.546875 C 93.613281 92.933594 92.308594 91.628906 90.695312 91.628906 Z M 81.953125 109.132812 C 78.738281 109.132812 76.125 106.515625 76.125 103.300781 C 76.125 100.082031 78.738281 97.464844 81.953125 97.464844 C 85.167969 97.464844 87.78125 100.082031 87.78125 103.300781 C 87.78125 106.515625 85.167969 109.132812 81.953125 109.132812 Z M 81.953125 109.132812 " fill-opacity="1" fill-rule="nonzero"/><path fill="#293b6d" d="M 119.84375 91.628906 C 118.644531 91.628906 117.621094 92.355469 117.171875 93.386719 C 115.398438 92.292969 113.332031 91.628906 111.097656 91.628906 C 104.667969 91.628906 99.441406 96.863281 99.441406 103.300781 C 99.441406 109.734375 104.667969 114.96875 111.097656 114.96875 C 113.332031 114.96875 115.402344 114.304688 117.171875 113.210938 C 117.621094 114.246094 118.644531 114.96875 119.84375 114.96875 C 121.453125 114.96875 122.757812 113.664062 122.757812 112.050781 L 122.757812 94.546875 C 122.757812 92.933594 121.453125 91.628906 119.84375 91.628906 Z M 111.097656 109.132812 C 107.882812 109.132812 105.269531 106.515625 105.269531 103.300781 C 105.269531 100.082031 107.882812 97.464844 111.097656 97.464844 C 114.3125 97.464844 116.925781 100.082031 116.925781 103.300781 C 116.925781 106.515625 114.3125 109.132812 111.097656 109.132812 Z M 111.097656 109.132812 " fill-opacity="1" fill-rule="nonzero"/></svg>