<svg xmlns="http://www.w3.org/2000/svg" xmlns:xlink="http://www.w3.org/1999/xlink" width="250" zoomAndPan="magnify" viewBox="0 0 187.5 187.499992" height="250" preserveAspectRatio="xMidYMid meet" version="1.0"><defs><clipPath id="e9f41afb60"><path d="M 9 99 L 79 99 L 79 133.15625 L 9 133.15625 Z M 9 99 " clip-rule="nonzero"/></clipPath></defs><path fill="#ffffff" d="M 0 0 L 187 0 L 187 187 L 0 187 Z M 0 0 " fill-opacity="1" fill-rule="nonzero"/><path fill="#161d2d" d="M 0 0 L 187 0 L 187 187 L 0 187 Z M 0 0 " fill-opacity="1" fill-rule="nonzero"/><g clip-path="url(#e9f41afb60)"><path fill="#00618a" d="M 9.613281 125.464844 L 15.140625 125.464844 L 15.140625 103.59375 L 23.699219 122.667969 C 24.710938 124.96875 26.09375 125.792969 28.804688 125.792969 C 31.515625 125.792969 32.84375 124.976562 33.855469 122.667969 L 42.414062 103.59375 L 42.414062 125.472656 L 47.941406 125.472656 L 47.941406 103.632812 C 47.941406 101.5 47.089844 100.46875 45.335938 99.9375 C 41.136719 98.625 38.320312 99.761719 37.046875 102.601562 L 28.644531 121.425781 L 20.511719 102.59375 C 19.289062 99.753906 16.417969 98.617188 12.21875 99.929688 C 10.464844 100.460938 9.613281 101.492188 9.613281 103.625 Z M 52.539062 107.660156 L 58.0625 107.660156 L 58.0625 119.710938 C 58.011719 120.367188 58.273438 121.90625 61.300781 121.953125 C 62.847656 121.976562 73.226562 121.953125 73.324219 121.953125 L 73.324219 107.597656 L 78.863281 107.597656 C 78.886719 107.597656 78.859375 127.167969 78.859375 127.253906 C 78.890625 132.082031 72.882812 133.128906 70.113281 133.210938 L 52.65625 133.210938 L 52.65625 129.480469 L 70.144531 129.480469 C 73.703125 129.101562 73.285156 127.332031 73.285156 126.734375 L 73.285156 125.28125 L 61.535156 125.28125 C 56.066406 125.234375 52.585938 122.839844 52.542969 120.089844 C 52.539062 119.84375 52.660156 107.777344 52.539062 107.65625 Z M 52.539062 107.660156 " fill-opacity="1" fill-rule="nonzero"/></g><path fill="#e48e00" d="M 83.125 125.464844 L 99.019531 125.464844 C 100.878906 125.464844 102.6875 125.074219 104.125 124.398438 C 106.515625 123.300781 107.6875 121.808594 107.6875 119.855469 L 107.6875 115.804688 C 107.6875 114.207031 106.355469 112.714844 103.753906 111.722656 C 102.371094 111.1875 100.667969 110.90625 99.023438 110.90625 L 92.324219 110.90625 C 90.089844 110.90625 89.027344 110.230469 88.761719 108.738281 C 88.710938 108.5625 88.710938 108.410156 88.710938 108.242188 L 88.710938 105.71875 C 88.710938 105.578125 88.710938 105.433594 88.761719 105.257812 C 89.027344 104.121094 89.613281 103.800781 91.578125 103.613281 C 91.738281 103.613281 91.953125 103.578125 92.113281 103.578125 L 107.898438 103.578125 L 107.898438 99.886719 L 92.378906 99.886719 C 90.144531 99.886719 88.976562 100.027344 87.910156 100.347656 C 84.613281 101.378906 83.175781 103.019531 83.175781 105.863281 L 83.175781 109.09375 C 83.175781 111.582031 85.996094 113.710938 90.722656 114.207031 C 91.257812 114.242188 91.789062 114.277344 92.320312 114.277344 L 98.058594 114.277344 C 98.273438 114.277344 98.484375 114.277344 98.644531 114.316406 C 100.398438 114.457031 101.144531 114.777344 101.675781 115.414062 C 102.003906 115.742188 102.101562 116.054688 102.101562 116.398438 L 102.101562 119.632812 C 102.101562 120.023438 101.835938 120.519531 101.304688 120.945312 C 100.824219 121.375 100.027344 121.65625 98.964844 121.726562 C 98.75 121.726562 98.59375 121.761719 98.378906 121.761719 L 83.125 121.761719 Z M 142.171875 119.039062 C 142.171875 122.839844 144.988281 124.96875 150.679688 125.394531 C 151.207031 125.4375 151.742188 125.460938 152.273438 125.464844 L 166.679688 125.464844 L 166.679688 121.773438 L 152.164062 121.773438 C 148.921875 121.773438 147.699219 120.957031 147.699219 119 L 147.699219 99.894531 L 142.171875 99.894531 Z M 111.210938 119.230469 L 111.210938 106.0625 C 111.210938 102.71875 113.554688 100.6875 118.191406 100.046875 C 118.683594 99.976562 119.183594 99.941406 119.683594 99.941406 L 130.175781 99.941406 C 130.695312 99.941406 131.210938 99.976562 131.722656 100.046875 C 136.355469 100.6875 138.699219 102.714844 138.699219 106.0625 L 138.699219 119.230469 C 138.699219 121.945312 137.703125 123.398438 135.410156 124.34375 L 140.855469 129.269531 L 134.4375 129.269531 L 130.03125 125.285156 L 125.59375 125.566406 L 119.683594 125.566406 C 118.671875 125.566406 117.605469 125.421875 116.433594 125.101562 C 112.910156 124.140625 111.214844 122.292969 111.214844 119.230469 Z M 117.179688 118.902344 C 117.179688 119.078125 117.234375 119.257812 117.285156 119.472656 C 117.613281 121.003906 119.042969 121.855469 121.21875 121.855469 L 126.242188 121.855469 L 121.628906 117.683594 L 128.046875 117.683594 L 132.0625 121.324219 C 132.804688 120.925781 133.292969 120.320312 133.457031 119.542969 C 133.507812 119.367188 133.507812 119.1875 133.507812 119.007812 L 133.507812 106.382812 C 133.507812 106.242188 133.507812 106.054688 133.457031 105.886719 C 133.128906 104.460938 131.699219 103.644531 129.566406 103.644531 L 121.234375 103.644531 C 118.777344 103.644531 117.1875 104.710938 117.1875 106.382812 L 117.1875 118.910156 Z M 117.179688 118.902344 " fill-opacity="1" fill-rule="nonzero"/><path fill="#00618a" d="M 171.539062 93.765625 C 168.140625 93.675781 165.542969 93.992188 163.324219 94.929688 C 162.695312 95.195312 161.691406 95.203125 161.585938 95.992188 C 161.933594 96.359375 161.988281 96.902344 162.261719 97.347656 C 162.792969 98.207031 163.6875 99.359375 164.484375 99.964844 C 165.355469 100.621094 166.253906 101.328125 167.191406 101.902344 C 168.855469 102.917969 170.710938 103.5 172.3125 104.515625 C 173.257812 105.117188 174.195312 105.871094 175.113281 106.550781 C 175.570312 106.882812 175.878906 107.40625 176.46875 107.613281 L 176.46875 107.515625 C 176.15625 107.121094 176.078125 106.574219 175.792969 106.164062 L 174.535156 104.902344 C 173.304688 103.261719 171.746094 101.835938 170.089844 100.640625 C 168.769531 99.691406 165.808594 98.40625 165.257812 96.863281 L 165.160156 96.765625 C 166.097656 96.660156 167.195312 96.320312 168.0625 96.089844 C 169.515625 95.699219 170.8125 95.800781 172.316406 95.414062 L 174.34375 94.832031 L 174.34375 94.445312 C 173.585938 93.664062 173.042969 92.632812 172.21875 91.925781 C 170.054688 90.078125 167.691406 88.234375 165.261719 86.695312 C 163.914062 85.839844 162.246094 85.289062 160.816406 84.5625 C 160.335938 84.320312 159.492188 84.195312 159.171875 83.789062 C 158.421875 82.828125 158.015625 81.613281 157.433594 80.503906 C 156.222656 78.164062 155.03125 75.605469 153.957031 73.144531 C 153.222656 71.464844 152.742188 69.808594 151.828125 68.300781 C 147.441406 61.074219 142.71875 56.710938 135.402344 52.421875 C 133.847656 51.511719 131.972656 51.148438 129.992188 50.679688 L 126.800781 50.484375 C 126.152344 50.214844 125.476562 49.417969 124.867188 49.03125 C 122.445312 47.496094 116.226562 44.160156 114.433594 48.539062 C 113.300781 51.308594 116.125 54.011719 117.136719 55.414062 C 117.847656 56.398438 118.757812 57.503906 119.265625 58.609375 C 119.597656 59.335938 119.65625 60.066406 119.941406 60.839844 C 120.644531 62.726562 121.253906 64.796875 122.164062 66.550781 C 122.621094 67.4375 123.128906 68.371094 123.707031 69.167969 C 124.066406 69.652344 124.675781 69.867188 124.773438 70.621094 C 124.175781 71.457031 124.140625 72.753906 123.804688 73.816406 C 122.292969 78.589844 122.863281 84.519531 125.0625 88.050781 C 125.734375 89.136719 127.324219 91.460938 129.507812 90.570312 C 131.414062 89.789062 130.980469 87.375 131.535156 85.242188 C 131.660156 84.757812 131.582031 84.40625 131.824219 84.082031 L 131.824219 84.179688 L 133.566406 87.664062 C 134.851562 89.742188 137.136719 91.914062 139.074219 93.378906 C 140.078125 94.140625 140.875 95.453125 142.164062 95.898438 L 142.164062 95.800781 L 142.070312 95.800781 C 141.816406 95.40625 141.425781 95.246094 141.101562 94.929688 C 140.34375 94.1875 139.503906 93.261719 138.878906 92.410156 C 137.117188 90.015625 135.5625 87.394531 134.144531 84.664062 C 133.46875 83.363281 132.878906 81.921875 132.308594 80.597656 C 132.089844 80.085938 132.09375 79.3125 131.632812 79.046875 C 131.007812 80.019531 130.085938 80.804688 129.605469 81.953125 C 128.832031 83.789062 128.730469 86.023438 128.445312 88.34375 C 128.273438 88.40625 128.351562 88.363281 128.25 88.441406 C 126.90625 88.117188 126.433594 86.726562 125.933594 85.535156 C 124.667969 82.523438 124.433594 77.671875 125.546875 74.207031 C 125.832031 73.308594 127.136719 70.484375 126.609375 69.65625 C 126.355469 68.828125 125.527344 68.339844 125.0625 67.714844 C 124.488281 66.9375 123.914062 65.90625 123.515625 65.003906 C 122.480469 62.65625 121.996094 60.019531 120.90625 57.644531 C 120.386719 56.511719 119.503906 55.363281 118.78125 54.359375 C 117.980469 53.242188 117.082031 52.417969 116.460938 51.078125 C 116.242188 50.597656 115.941406 49.828125 116.269531 49.332031 C 116.339844 49.015625 116.53125 48.820312 116.847656 48.75 C 117.410156 48.320312 118.972656 48.894531 119.554688 49.140625 C 121.101562 49.785156 122.398438 50.398438 123.710938 51.269531 C 124.339844 51.679688 124.976562 52.5 125.738281 52.722656 L 126.609375 52.722656 C 127.96875 53.035156 129.492188 52.820312 130.761719 53.207031 C 133.007812 53.890625 135.019531 54.957031 136.851562 56.113281 C 142.421875 59.636719 146.972656 64.65625 150.089844 70.648438 C 150.589844 71.609375 150.808594 72.53125 151.25 73.550781 C 152.140625 75.605469 153.261719 77.734375 154.148438 79.75 C 155.03125 81.761719 155.890625 83.789062 157.144531 85.464844 C 157.800781 86.34375 160.339844 86.816406 161.492188 87.304688 C 162.300781 87.644531 163.625 88.003906 164.390625 88.464844 C 165.851562 89.347656 167.269531 90.402344 168.644531 91.371094 C 169.328125 91.855469 171.4375 92.917969 171.542969 93.792969 Z M 171.539062 93.765625 " fill-opacity="1" fill-rule="nonzero"/><path fill="#00618a" d="M 128.351562 56.871094 C 127.640625 56.855469 127.140625 56.949219 126.609375 57.0625 L 126.609375 57.160156 L 126.707031 57.160156 C 127.042969 57.855469 127.640625 58.304688 128.058594 58.902344 L 129.027344 60.9375 L 129.121094 60.839844 C 129.722656 60.417969 129.996094 59.742188 129.992188 58.710938 C 129.75 58.457031 129.714844 58.140625 129.507812 57.835938 C 129.230469 57.433594 128.6875 57.207031 128.347656 56.867188 Z M 128.351562 56.871094 " fill-opacity="1" fill-rule="evenodd"/><path fill="#e48e00" d="M 169.277344 121.667969 C 169.277344 124.105469 171.199219 125.75 173.351562 125.75 C 175.503906 125.75 177.425781 124.105469 177.425781 121.667969 C 177.425781 119.226562 175.503906 117.585938 173.351562 117.585938 C 171.199219 117.585938 169.277344 119.226562 169.277344 121.667969 Z M 176.511719 121.667969 C 176.511719 123.519531 175.101562 124.902344 173.351562 124.902344 C 171.582031 124.902344 170.1875 123.519531 170.1875 121.667969 C 170.1875 119.816406 171.578125 118.433594 173.351562 118.433594 C 175.097656 118.433594 176.511719 119.816406 176.511719 121.667969 Z M 174.449219 123.996094 L 175.359375 123.996094 L 174.023438 121.953125 C 174.742188 121.875 175.285156 121.527344 175.285156 120.675781 C 175.285156 119.730469 174.6875 119.339844 173.535156 119.339844 L 171.71875 119.339844 L 171.71875 124 L 172.503906 124 L 172.503906 121.984375 L 173.230469 121.984375 L 174.449219 124 Z M 172.503906 121.328125 L 172.503906 119.992188 L 173.40625 119.992188 C 173.871094 119.992188 174.4375 120.078125 174.4375 120.621094 C 174.4375 121.277344 173.925781 121.332031 173.339844 121.332031 L 172.503906 121.332031 Z M 172.503906 121.328125 " fill-opacity="1" fill-rule="evenodd"/></svg>