<svg xmlns="http://www.w3.org/2000/svg" xmlns:xlink="http://www.w3.org/1999/xlink" width="250" zoomAndPan="magnify" viewBox="0 0 187.5 187.499992" height="250" preserveAspectRatio="xMidYMid meet" version="1.0"><defs><clipPath id="fed44fc2b7"><path d="M 46 4.417969 L 137 4.417969 L 137 182.441406 L 46 182.441406 Z M 46 4.417969 " clip-rule="nonzero"/></clipPath></defs><path fill="#ffffff" d="M 0 0 L 187 0 L 187 187 L 0 187 Z M 0 0 " fill-opacity="1" fill-rule="nonzero"/><path fill="#161d2d" d="M 0 0 L 187 0 L 187 187 L 0 187 Z M 0 0 " fill-opacity="1" fill-rule="nonzero"/><path fill="#4e7896" d="M 77.933594 98.828125 C 77.933594 98.828125 73.222656 101.679688 81.210938 102.496094 C 90.832031 103.71875 95.949219 103.515625 106.597656 101.476562 C 106.597656 101.476562 109.464844 103.3125 113.351562 104.738281 C 89.398438 114.933594 59.097656 104.128906 77.933594 98.828125 Z M 74.863281 85.574219 C 74.863281 85.574219 69.742188 89.445312 77.730469 90.261719 C 88.171875 91.28125 96.359375 91.484375 110.488281 88.632812 C 110.488281 88.632812 112.328125 90.671875 115.402344 91.691406 C 86.53125 100.253906 54.183594 92.503906 74.863281 85.574219 Z M 131.371094 108.816406 C 131.371094 108.816406 134.851562 111.671875 127.480469 113.914062 C 113.761719 117.992188 69.949219 119.214844 57.664062 113.914062 C 53.363281 112.078125 61.554688 109.425781 64.214844 109.019531 C 66.878906 108.40625 68.3125 108.40625 68.3125 108.40625 C 63.601562 105.144531 36.984375 115.136719 54.796875 117.992188 C 103.730469 125.945312 144.0625 114.523438 131.371094 108.816406 Z M 80.1875 71.703125 C 80.1875 71.703125 57.871094 77.007812 72.203125 78.839844 C 78.34375 79.65625 90.425781 79.453125 101.683594 78.636719 C 110.898438 77.820312 120.113281 76.191406 120.113281 76.191406 C 120.113281 76.191406 116.835938 77.617188 114.582031 79.042969 C 91.859375 84.957031 48.25 82.308594 60.738281 76.191406 C 71.382812 71.09375 80.1875 71.703125 80.1875 71.703125 Z M 120.109375 93.929688 C 143.042969 82.105469 132.394531 70.6875 125.023438 72.113281 C 123.183594 72.519531 122.363281 72.929688 122.363281 72.929688 C 122.363281 72.929688 122.976562 71.703125 124.410156 71.296875 C 138.945312 66.199219 150.414062 86.589844 119.703125 94.542969 C 119.703125 94.542969 119.90625 94.335938 120.109375 93.929688 Z M 82.4375 126.148438 C 104.550781 127.574219 138.328125 125.332031 139.152344 114.933594 C 139.152344 114.933594 137.515625 119.011719 120.929688 122.070312 C 102.09375 125.535156 78.753906 125.128906 65.042969 122.886719 C 65.042969 122.886719 67.90625 125.332031 82.445312 126.148438 Z M 82.4375 126.148438 " fill-opacity="1" fill-rule="nonzero"/><g clip-path="url(#fed44fc2b7)"><path fill="#f58219" d="M 106.1875 4.417969 C 106.1875 4.417969 118.878906 17.261719 94.105469 36.632812 C 74.246094 52.335938 89.601562 61.304688 94.105469 71.5 C 82.4375 61.101562 74.042969 51.925781 79.777344 43.363281 C 88.171875 30.71875 111.308594 24.605469 106.1875 4.417969 Z M 99.640625 62.9375 C 105.578125 69.667969 98 75.785156 98 75.785156 C 98 75.785156 113.152344 68.035156 106.191406 58.453125 C 99.84375 49.277344 94.929688 44.792969 121.546875 29.503906 C 121.546875 29.503906 79.574219 39.902344 99.640625 62.941406 Z M 84.484375 172.433594 L 84.484375 152.449219 C 84.484375 147.351562 81.621094 143.886719 74.453125 143.886719 C 70.359375 143.886719 66.878906 144.90625 63.808594 146.125 L 64.832031 149.796875 C 67.078125 148.980469 69.949219 148.164062 73.019531 148.164062 C 76.910156 148.164062 78.753906 149.796875 78.753906 153.058594 L 78.753906 155.707031 L 76.707031 155.707031 C 66.878906 155.707031 62.375 159.378906 62.375 165.292969 C 62.375 170.1875 65.445312 173.039062 70.972656 173.039062 C 74.453125 173.039062 77.117188 171.410156 79.574219 169.371094 L 79.980469 172.429688 L 84.488281 172.429688 Z M 78.753906 165.90625 C 76.707031 167.742188 74.453125 168.761719 72.40625 168.761719 C 69.742188 168.761719 68.105469 167.132812 68.105469 164.277344 C 68.105469 161.421875 69.746094 159.382812 76.296875 159.382812 L 78.753906 159.382812 Z M 103.730469 172.433594 L 96.566406 172.433594 L 87.96875 144.496094 L 94.109375 144.496094 L 99.433594 161.625 L 100.660156 166.722656 C 103.324219 159.382812 105.371094 151.835938 106.1875 144.496094 L 112.332031 144.496094 C 110.691406 153.671875 107.828125 163.664062 103.734375 172.433594 Z M 136.898438 172.433594 L 136.898438 152.449219 C 136.898438 147.351562 134.03125 143.886719 126.867188 143.886719 C 122.773438 143.886719 119.292969 144.90625 116.21875 146.125 L 117.039062 149.796875 C 119.496094 148.980469 122.363281 148.164062 125.433594 148.164062 C 129.324219 148.164062 131.167969 149.796875 131.167969 153.058594 L 131.167969 155.707031 L 129.121094 155.707031 C 119.292969 155.707031 114.789062 159.378906 114.789062 165.292969 C 114.789062 170.1875 117.652344 173.039062 123.179688 173.039062 C 126.867188 173.039062 129.527344 171.410156 131.984375 169.371094 L 132.394531 172.429688 L 136.898438 172.429688 Z M 131.167969 165.90625 C 129.121094 167.742188 126.867188 168.761719 124.820312 168.761719 C 122.15625 168.761719 120.519531 167.132812 120.519531 164.277344 C 120.519531 161.421875 122.15625 159.382812 128.710938 159.382812 L 131.167969 159.382812 Z M 56.027344 177.121094 C 54.390625 179.570312 51.933594 181.40625 48.863281 182.425781 L 46.199219 179.164062 C 48.246094 177.941406 50.292969 176.105469 51.113281 174.472656 C 51.933594 173.046875 52.136719 171.007812 52.136719 166.316406 L 52.136719 134.507812 L 58.28125 134.507812 L 58.28125 165.910156 C 58.28125 172.230469 57.664062 174.679688 56.03125 177.125 Z M 56.027344 177.121094 " fill-opacity="1" fill-rule="nonzero"/></g></svg>