<svg xmlns="http://www.w3.org/2000/svg" xmlns:xlink="http://www.w3.org/1999/xlink" width="250" zoomAndPan="magnify" viewBox="0 0 187.5 187.499992" height="250" preserveAspectRatio="xMidYMid meet" version="1.0"><defs><clipPath id="a232d345b9"><path d="M 6.335938 16 L 180.621094 16 L 180.621094 172 L 6.335938 172 Z M 6.335938 16 " clip-rule="nonzero"/></clipPath></defs><path fill="#ffffff" d="M 0 0 L 187 0 L 187 187 L 0 187 Z M 0 0 " fill-opacity="1" fill-rule="nonzero"/><path fill="#161d2d" d="M 0 0 L 187 0 L 187 187 L 0 187 Z M 0 0 " fill-opacity="1" fill-rule="nonzero"/><g clip-path="url(#a232d345b9)"><path fill="#00d8ff" d="M 149.515625 66.34375 C 147.71875 65.722656 145.847656 65.132812 143.917969 64.578125 C 144.238281 63.285156 144.53125 62.007812 144.789062 60.75 C 149.023438 40.144531 146.257812 23.539062 136.792969 18.074219 C 127.714844 12.832031 112.878906 18.296875 97.890625 31.363281 C 96.449219 32.621094 95 33.949219 93.5625 35.34375 C 92.597656 34.421875 91.640625 33.53125 90.679688 32.675781 C 74.972656 18.707031 59.230469 12.820312 49.777344 18.300781 C 40.710938 23.558594 38.027344 39.167969 41.839844 58.699219 C 42.210938 60.585938 42.640625 62.511719 43.128906 64.46875 C 40.898438 65.101562 38.75 65.777344 36.691406 66.496094 C 18.277344 72.929688 6.515625 83.007812 6.515625 93.464844 C 6.515625 104.257812 19.140625 115.09375 38.320312 121.660156 C 39.832031 122.175781 41.402344 122.667969 43.023438 123.128906 C 42.496094 125.246094 42.039062 127.320312 41.65625 129.351562 C 38.019531 148.542969 40.859375 163.78125 49.902344 169 C 59.238281 174.398438 74.910156 168.851562 90.171875 155.492188 C 91.378906 154.4375 92.589844 153.3125 93.800781 152.140625 C 95.375 153.652344 96.945312 155.089844 98.5 156.4375 C 113.285156 169.175781 127.886719 174.324219 136.914062 169.089844 C 146.242188 163.679688 149.28125 147.304688 145.339844 127.390625 C 145.039062 125.867188 144.6875 124.3125 144.300781 122.734375 C 145.398438 122.40625 146.480469 122.066406 147.535156 121.71875 C 167.472656 115.097656 180.445312 104.40625 180.445312 93.464844 C 180.445312 82.96875 168.304688 72.824219 149.515625 66.34375 Z M 145.195312 114.65625 C 144.246094 114.96875 143.265625 115.277344 142.273438 115.566406 C 140.074219 108.59375 137.105469 101.167969 133.464844 93.496094 C 136.933594 86.011719 139.789062 78.683594 141.929688 71.75 C 143.707031 72.265625 145.433594 72.808594 147.097656 73.382812 C 163.195312 78.933594 173.011719 87.140625 173.011719 93.464844 C 173.011719 100.195312 162.414062 108.941406 145.195312 114.65625 Z M 138.050781 128.832031 C 139.796875 137.640625 140.039062 145.601562 138.886719 151.828125 C 137.851562 157.421875 135.765625 161.152344 133.191406 162.644531 C 127.707031 165.820312 115.988281 161.691406 103.351562 150.796875 C 101.898438 149.542969 100.4375 148.207031 98.976562 146.800781 C 103.875 141.429688 108.773438 135.1875 113.554688 128.253906 C 121.960938 127.511719 129.902344 126.289062 137.113281 124.621094 C 137.464844 126.054688 137.777344 127.457031 138.050781 128.832031 Z M 65.816406 162.09375 C 60.460938 163.992188 56.195312 164.046875 53.617188 162.554688 C 48.128906 159.382812 45.847656 147.148438 48.960938 130.738281 C 49.316406 128.859375 49.742188 126.925781 50.230469 124.953125 C 57.355469 126.53125 65.238281 127.667969 73.667969 128.347656 C 78.480469 135.136719 83.523438 141.367188 88.597656 146.828125 C 87.492188 147.902344 86.382812 148.921875 85.28125 149.882812 C 78.535156 155.796875 71.773438 159.988281 65.816406 162.09375 Z M 40.726562 114.617188 C 32.246094 111.710938 25.242188 107.9375 20.441406 103.816406 C 16.125 100.121094 13.949219 96.445312 13.949219 93.464844 C 13.949219 87.121094 23.390625 79.023438 39.136719 73.527344 C 41.050781 72.859375 43.050781 72.230469 45.125 71.636719 C 47.300781 78.730469 50.15625 86.148438 53.601562 93.640625 C 50.113281 101.25 47.214844 108.78125 45.019531 115.964844 C 43.539062 115.535156 42.105469 115.085938 40.726562 114.617188 Z M 49.136719 57.269531 C 45.867188 40.535156 48.039062 27.910156 53.5 24.742188 C 59.320312 21.371094 72.1875 26.179688 85.746094 38.242188 C 86.613281 39.015625 87.484375 39.820312 88.359375 40.65625 C 83.304688 46.089844 78.3125 52.28125 73.539062 59.023438 C 65.359375 59.78125 57.53125 61.003906 50.332031 62.636719 C 49.878906 60.8125 49.476562 59.019531 49.136719 57.269531 Z M 124.15625 75.824219 C 122.4375 72.847656 120.671875 69.941406 118.871094 67.113281 C 124.421875 67.816406 129.734375 68.75 134.726562 69.890625 C 133.234375 74.703125 131.363281 79.734375 129.164062 84.894531 C 127.585938 81.890625 125.914062 78.867188 124.15625 75.824219 Z M 93.5625 45.976562 C 96.992188 49.695312 100.425781 53.847656 103.800781 58.351562 C 100.398438 58.191406 96.953125 58.109375 93.480469 58.109375 C 90.042969 58.109375 86.625 58.191406 83.242188 58.347656 C 86.617188 53.882812 90.082031 49.738281 93.5625 45.976562 Z M 62.773438 75.878906 C 61.054688 78.863281 59.414062 81.871094 57.863281 84.886719 C 55.699219 79.746094 53.847656 74.691406 52.335938 69.8125 C 57.300781 68.699219 62.589844 67.789062 68.105469 67.097656 C 66.277344 69.953125 64.496094 72.882812 62.773438 75.878906 Z M 68.261719 120.351562 C 62.566406 119.71875 57.195312 118.855469 52.234375 117.773438 C 53.769531 112.804688 55.660156 107.644531 57.871094 102.390625 C 59.429688 105.40625 61.074219 108.414062 62.800781 111.410156 L 62.804688 111.410156 C 64.566406 114.457031 66.390625 117.441406 68.261719 120.351562 Z M 93.765625 141.472656 C 90.246094 137.667969 86.734375 133.453125 83.304688 128.929688 C 86.632812 129.058594 90.03125 129.125 93.480469 129.125 C 97.027344 129.125 100.53125 129.042969 103.976562 128.894531 C 100.59375 133.5 97.171875 137.722656 93.765625 141.472656 Z M 129.230469 102.125 C 131.554688 107.433594 133.519531 112.566406 135.074219 117.453125 C 130.03125 118.605469 124.585938 119.527344 118.851562 120.222656 C 120.65625 117.359375 122.4375 114.398438 124.191406 111.355469 C 125.964844 108.28125 127.640625 105.195312 129.230469 102.125 Z M 117.75 107.640625 C 115.03125 112.363281 112.238281 116.867188 109.40625 121.121094 C 104.25 121.488281 98.914062 121.679688 93.480469 121.679688 C 88.066406 121.679688 82.800781 121.515625 77.730469 121.183594 C 74.785156 116.875 71.933594 112.355469 69.230469 107.679688 L 69.234375 107.679688 C 66.539062 103.019531 64.058594 98.316406 61.8125 93.640625 C 64.058594 88.957031 66.53125 84.25 69.210938 79.59375 C 71.894531 74.929688 74.722656 70.429688 77.644531 66.148438 C 82.8125 65.753906 88.121094 65.550781 93.480469 65.550781 C 98.867188 65.550781 104.175781 65.757812 109.34375 66.152344 C 112.226562 70.40625 115.03125 74.890625 117.730469 79.554688 C 120.453125 84.273438 122.960938 88.949219 125.222656 93.539062 C 122.96875 98.199219 120.46875 102.921875 117.75 107.640625 Z M 133.078125 24.519531 C 138.90625 27.886719 141.167969 41.453125 137.507812 59.246094 C 137.273438 60.382812 137.011719 61.539062 136.726562 62.710938 C 129.507812 61.042969 121.675781 59.800781 113.476562 59.03125 C 108.691406 52.214844 103.738281 46.015625 98.765625 40.648438 C 100.105469 39.363281 101.445312 38.132812 102.769531 36.976562 C 115.609375 25.78125 127.613281 21.363281 133.078125 24.519531 Z M 93.480469 77.902344 C 102.054688 77.902344 109.011719 84.867188 109.011719 93.460938 C 109.011719 102.050781 102.054688 109.019531 93.480469 109.019531 C 84.90625 109.019531 77.949219 102.050781 77.949219 93.460938 C 77.949219 84.867188 84.90625 77.902344 93.480469 77.902344 Z M 93.480469 77.902344 " fill-opacity="1" fill-rule="nonzero"/></g></svg>