<svg xmlns="http://www.w3.org/2000/svg" xmlns:xlink="http://www.w3.org/1999/xlink" width="250" zoomAndPan="magnify" viewBox="0 0 187.5 187.499992" height="250" preserveAspectRatio="xMidYMid meet" version="1.0"><defs><clipPath id="766b01d82b"><path d="M 15.597656 11 L 177.914062 11 L 177.914062 184 L 15.597656 184 Z M 15.597656 11 " clip-rule="nonzero"/></clipPath><clipPath id="7c71148da0"><path d="M 95 11 L 177.914062 11 L 177.914062 184 L 95 184 Z M 95 11 " clip-rule="nonzero"/></clipPath></defs><path fill="#ffffff" d="M 0 0 L 187 0 L 187 187 L 0 187 Z M 0 0 " fill-opacity="1" fill-rule="nonzero"/><path fill="#161d2d" d="M 0 0 L 187 0 L 187 187 L 0 187 Z M 0 0 " fill-opacity="1" fill-rule="nonzero"/><g clip-path="url(#766b01d82b)"><path fill="#e23237" d="M 15.597656 39.835938 L 95.640625 11.261719 L 177.785156 39.394531 L 164.511719 145.570312 L 95.640625 183.78125 L 27.886719 146.066406 Z M 15.597656 39.835938 " fill-opacity="1" fill-rule="nonzero"/></g><g clip-path="url(#7c71148da0)"><path fill="#b52e31" d="M 177.785156 39.394531 L 95.640625 11.261719 L 95.640625 183.78125 L 164.511719 145.570312 Z M 177.785156 39.394531 " fill-opacity="1" fill-rule="nonzero"/></g><path fill="#ffffff" d="M 95.761719 31.425781 L 45.886719 142.699219 L 64.496094 142.324219 L 74.546875 117.179688 L 119.160156 117.179688 L 130.082031 142.515625 L 147.828125 142.894531 Z M 95.886719 67.148438 L 112.761719 102.5 L 81.171875 102.5 L 95.933594 67.148438 Z M 95.886719 67.148438 " fill-opacity="1" fill-rule="nonzero"/></svg>