<svg xmlns="http://www.w3.org/2000/svg" xmlns:xlink="http://www.w3.org/1999/xlink" width="250" zoomAndPan="magnify" viewBox="0 0 187.5 187.499992" height="250" preserveAspectRatio="xMidYMid meet" version="1.0"><defs><clipPath id="22d85c149b"><path d="M 23.128906 16 L 163.753906 16 L 163.753906 170.773438 L 23.128906 170.773438 Z M 23.128906 16 " clip-rule="nonzero"/></clipPath></defs><path fill="#ffffff" d="M 0 0 L 187 0 L 187 187 L 0 187 Z M 0 0 " fill-opacity="1" fill-rule="nonzero"/><path fill="#161d2d" d="M 0 0 L 187 0 L 187 187 L 0 187 Z M 0 0 " fill-opacity="1" fill-rule="nonzero"/><g clip-path="url(#22d85c149b)"><path fill="#8cc84b" d="M 86.949219 17.996094 C 90.8125 15.808594 95.738281 15.800781 99.503906 17.996094 L 157.179688 50.472656 C 160.785156 52.5 163.199219 56.515625 163.167969 60.667969 L 163.167969 125.789062 C 163.191406 130.113281 160.539062 134.21875 156.734375 136.207031 L 99.371094 168.535156 C 98.390625 169.074219 97.355469 169.480469 96.265625 169.742188 C 95.175781 170.007812 94.070312 170.125 92.949219 170.09375 C 91.832031 170.0625 90.734375 169.886719 89.660156 169.5625 C 88.589844 169.238281 87.578125 168.777344 86.628906 168.183594 L 69.414062 158.246094 C 68.238281 157.546875 66.921875 156.992188 66.089844 155.859375 C 66.824219 154.875 68.128906 154.75 69.191406 154.316406 C 71.585938 153.550781 73.777344 152.386719 75.980469 151.148438 C 76.535156 150.765625 77.214844 150.910156 77.746094 151.257812 L 92.425781 159.738281 C 93.472656 160.339844 94.535156 159.542969 95.433594 159.035156 L 151.761719 127.285156 C 152.457031 126.945312 152.84375 126.210938 152.785156 125.449219 L 152.785156 60.957031 C 152.863281 60.089844 152.363281 59.300781 151.578125 58.949219 L 94.359375 26.757812 C 94.019531 26.527344 93.644531 26.410156 93.234375 26.410156 C 92.824219 26.40625 92.449219 26.523438 92.113281 26.753906 L 34.976562 59.011719 C 34.203125 59.363281 33.671875 60.144531 33.769531 61.011719 L 33.769531 125.503906 C 33.699219 126.265625 34.105469 126.984375 34.804688 127.3125 L 50.074219 135.921875 C 52.941406 137.464844 56.460938 138.335938 59.621094 137.199219 C 60.3125 136.941406 60.949219 136.582031 61.527344 136.128906 C 62.109375 135.675781 62.609375 135.144531 63.03125 134.535156 C 63.449219 133.929688 63.769531 133.273438 63.984375 132.566406 C 64.203125 131.863281 64.3125 131.140625 64.308594 130.402344 L 64.324219 66.296875 C 64.257812 65.347656 65.152344 64.5625 66.078125 64.660156 L 73.414062 64.660156 C 74.382812 64.632812 75.140625 65.65625 75.007812 66.613281 L 74.996094 131.121094 C 75 136.851562 72.644531 143.085938 67.335938 145.898438 C 60.796875 149.273438 52.714844 148.566406 46.253906 145.320312 L 29.835938 136.25 C 25.972656 134.320312 23.382812 130.152344 23.40625 125.832031 L 23.40625 60.714844 C 23.414062 59.65625 23.558594 58.617188 23.847656 57.597656 C 24.132812 56.578125 24.546875 55.613281 25.09375 54.707031 C 25.636719 53.800781 26.289062 52.976562 27.054688 52.246094 C 27.820312 51.511719 28.664062 50.890625 29.597656 50.386719 Z M 103.582031 63.132812 C 111.917969 62.652344 120.847656 62.816406 128.351562 66.921875 C 134.160156 70.066406 137.382812 76.664062 137.488281 83.117188 C 137.324219 83.988281 136.414062 84.46875 135.585938 84.40625 C 133.171875 84.402344 130.746094 84.441406 128.324219 84.390625 C 127.292969 84.429688 126.699219 83.484375 126.570312 82.578125 C 125.875 79.492188 124.191406 76.4375 121.28125 74.949219 C 116.820312 72.714844 111.644531 72.824219 106.777344 72.875 C 103.222656 73.066406 99.402344 73.371094 96.394531 75.453125 C 94.078125 77.035156 93.382812 80.277344 94.207031 82.796875 C 94.980469 84.644531 97.121094 85.234375 98.863281 85.785156 C 108.917969 88.410156 119.5625 88.199219 129.429688 91.609375 C 133.507812 93.015625 137.503906 95.757812 138.902344 100.023438 C 140.726562 105.746094 139.929688 112.585938 135.859375 117.179688 C 132.558594 120.960938 127.75 122.964844 122.945312 124.132812 C 116.554688 125.554688 109.929688 125.589844 103.445312 124.953125 C 97.347656 124.257812 91.003906 122.65625 86.292969 118.507812 C 82.265625 115.015625 80.304688 109.574219 80.5 104.328125 C 80.546875 103.441406 81.429688 102.824219 82.285156 102.894531 L 89.527344 102.894531 C 90.503906 102.828125 91.21875 103.667969 91.269531 104.582031 C 91.714844 107.476562 92.824219 110.613281 95.390625 112.300781 C 100.34375 115.496094 106.558594 115.273438 112.230469 115.363281 C 116.925781 115.15625 122.199219 115.09375 126.039062 111.988281 C 128.066406 110.21875 128.660156 107.261719 128.113281 104.714844 C 127.519531 102.5625 125.21875 101.5625 123.285156 100.855469 C 113.363281 97.71875 102.59375 98.859375 92.769531 95.308594 C 88.78125 93.898438 84.921875 91.238281 83.390625 87.140625 C 81.253906 81.351562 82.234375 74.179688 86.738281 69.742188 C 91.085938 65.328125 97.457031 63.625 103.492188 63.019531 Z M 103.582031 63.132812 " fill-opacity="1" fill-rule="nonzero"/></g></svg>