<svg width="217" height="154" viewBox="0 0 217 154" fill="none" xmlns="http://www.w3.org/2000/svg">
<g clip-path="url(#clip0_2_40)">
<g clip-path="url(#clip1_2_40)">
<g clip-path="url(#clip2_2_40)">
<path d="M16.0242 73.1799L192.748 42.0188L204.877 110.807L28.1533 141.968L16.0242 73.1799Z" stroke="#5452F7" stroke-width="2.51" stroke-miterlimit="10"/>
<path d="M10.2139 69.1374L20.1004 67.3942L21.8332 77.2216L11.9468 78.9648L10.2139 69.1374ZM22.5598 139.154L32.4463 137.411L34.1791 147.238L24.2926 148.982L22.5598 139.154ZM199.285 107.993L209.171 106.25L210.904 116.077L201.017 117.82L199.285 107.993ZM186.939 37.9761L196.825 36.2329L198.558 46.0603L188.671 47.8035L186.939 37.9761Z" fill="#5452F7" stroke="#5452F7" stroke-width="2.51" stroke-miterlimit="10"/>
<path d="M38.893 94.4783C37.9361 89.0511 41.5869 83.8704 47.0467 82.9077L150.857 64.6031C164.509 62.196 177.513 71.2442 179.906 84.8129L180.772 89.7261C181.729 95.1534 178.078 100.333 172.618 101.296L53.9777 122.215C48.5179 123.178 43.3155 119.559 42.3585 114.132L38.893 94.4783ZM10.2405 39.924L14.2525 34.2288L19.9724 38.208L15.9579 43.9006L10.2384 39.9234L10.2405 39.924ZM12.4335 52.3611L16.4453 46.6649L22.1652 50.6442L18.1512 56.3397L12.4314 52.3605L12.4335 52.3611ZM5.07944 47.2454L9.0934 41.5499L14.8103 45.5296L10.7964 51.2252L5.07944 47.2454ZM17.5924 45.0391L21.6064 39.3435L27.3243 43.3231L23.3103 49.0186L17.5924 45.0391ZM40.0506 48.0449L37.8452 35.5378L42.4551 34.725C43.3473 34.5677 44.113 34.585 44.7503 34.7732C45.3864 34.9596 45.8949 35.275 46.2731 35.7212C46.6503 36.1613 46.8941 36.6921 47.0032 37.3105C47.095 37.8315 47.0761 38.2887 46.9463 38.6812C46.8156 39.0688 46.609 39.3997 46.324 39.6723C46.0377 39.9432 45.7088 40.1626 45.3492 40.3235L45.3708 40.4456C45.7918 40.3917 46.2222 40.4539 46.6638 40.6319C47.1086 40.8053 47.5008 41.0946 47.8425 41.5004C48.1843 41.9072 48.4132 42.4335 48.5275 43.0815C48.6437 43.6835 48.5912 44.307 48.376 44.8832C48.1665 45.44 47.7735 45.9236 47.1995 46.3305C46.625 46.7354 45.8491 47.0225 44.8741 47.1944L40.0506 48.0449ZM41.6648 46.0909L44.4045 45.6078C45.3145 45.4474 45.9347 45.1583 46.2648 44.7386C46.5922 44.3437 46.7238 43.823 46.6242 43.3216C46.5548 42.9277 46.3904 42.583 46.1322 42.2874C45.8652 41.9882 45.5187 41.768 45.1337 41.6521C44.7287 41.5204 44.2744 41.501 43.7662 41.5906L40.9576 42.0859L41.6648 46.0909ZM40.6989 40.6134L43.2427 40.1649C43.6691 40.0897 44.038 39.9414 44.3489 39.718C44.664 39.4949 44.8955 39.2185 45.0436 38.8898C45.196 38.5563 45.2388 38.1882 45.1678 37.7855C45.0768 37.2694 44.8168 36.8664 44.3908 36.5811C43.9646 36.2947 43.3735 36.2192 42.6211 36.3519L40.0272 36.8093L40.6989 40.6134ZM56.517 41.1305L55.5488 35.6392L57.3914 35.3143L59.0455 44.6956L57.2394 45.0141L56.953 43.3901L56.8536 43.4076C56.7214 43.9539 56.4364 44.4509 56.0314 44.8432C55.6137 45.256 55.051 45.5258 54.3429 45.6507C53.7825 45.7607 53.202 45.7219 52.6628 45.5377C52.1385 45.3398 51.6842 44.9924 51.3586 44.539C51.004 44.0603 50.7588 43.4354 50.6223 42.6614L49.5704 36.6954L51.408 36.3714L52.4211 42.1167C52.5338 42.7559 52.802 43.2346 53.2242 43.55C53.6483 43.8652 54.1436 43.9728 54.7138 43.8723C55.0575 43.8117 55.3841 43.6657 55.6936 43.4345C56.0083 43.2033 56.2472 42.8941 56.4108 42.5089C56.5803 42.1226 56.6149 41.6626 56.517 41.1305ZM64.2653 34.1022L64.5241 35.5696L59.3696 36.4785L59.1112 35.0131L64.2657 34.1042L64.2653 34.1022ZM60.0974 32.521L61.9341 32.1971L63.4988 41.0712C63.5612 41.4248 63.6612 41.6813 63.8003 41.8426C63.9376 41.9991 64.0955 42.0941 64.2744 42.1296C64.4575 42.1603 64.6492 42.159 64.8501 42.1236C64.9988 42.0973 65.1251 42.0649 65.2316 42.0238C65.3394 41.9845 65.4231 41.9525 65.4809 41.9291L66.0788 43.3793C65.9393 43.4577 65.7949 43.5258 65.6455 43.5826C65.412 43.6746 65.1691 43.7428 64.9219 43.7863C64.46 43.879 63.9827 43.8728 63.5243 43.7667C63.0819 43.665 62.6794 43.4385 62.3645 43.1152C62.0386 42.7869 61.8287 42.3395 61.7288 41.7732L60.0974 32.521ZM70.7034 32.9691L70.9617 34.4345L65.8073 35.3433L65.5489 33.8779L70.7034 32.9691ZM66.5341 31.386L68.3718 31.062L69.9365 39.9361C69.9988 40.2896 70.0989 40.5461 70.238 40.7074C70.3743 40.8642 70.5332 40.959 70.7111 40.9947C70.8952 41.0252 71.0859 41.024 71.2878 40.9884C71.4365 40.9622 71.5628 40.9298 71.6692 40.8887C71.7771 40.8493 71.8608 40.8173 71.9186 40.7939L72.5155 42.2443C72.377 42.3226 72.2316 42.3908 72.0832 42.4475C71.8487 42.5396 71.6068 42.6076 71.3596 42.6512C70.8967 42.744 70.4203 42.7376 69.962 42.6316C69.5196 42.5299 69.1171 42.3033 68.8022 41.9801C68.4762 41.6517 68.2664 41.2044 68.1665 40.6381L66.5341 31.386ZM78.2964 41.4961C77.412 41.652 76.6045 41.5873 75.8735 41.2998C75.139 41.01 74.5028 40.517 74.0401 39.8797C73.5469 39.2193 73.2152 38.4035 73.0445 37.4354C72.8727 36.4614 72.9051 35.5794 73.1418 34.7852C73.3563 34.0265 73.786 33.3424 74.3777 32.8167C74.9655 32.2978 75.7032 31.9605 76.5875 31.8046C77.4729 31.6485 78.2794 31.7134 79.0103 31.9999C79.7414 32.2883 80.3524 32.7644 80.8459 33.4268C81.339 34.0923 81.672 34.9099 81.8437 35.8839C82.0144 36.8519 81.9808 37.7321 81.7442 38.5212C81.5264 39.2785 81.0971 39.9594 80.5061 40.483C79.9184 41.0029 79.1817 41.34 78.2964 41.4961ZM78.0319 39.9617C78.6061 39.8605 79.0554 39.6269 79.3773 39.2584C79.7015 38.8915 79.9085 38.4418 80.0021 37.9074C80.0976 37.3432 80.0926 36.7674 79.9863 36.2053C79.8808 35.6065 79.6923 35.0731 79.4197 34.6043C79.1765 34.1578 78.8118 33.7885 78.3684 33.5367C77.9393 33.2976 77.4367 33.2288 76.8626 33.33C76.2855 33.4318 75.8328 33.669 75.5065 34.0413C75.1751 34.4308 74.9587 34.9025 74.879 35.406C74.7872 35.9685 74.7931 36.5432 74.8978 37.1025C75.0039 37.7042 75.1931 38.2415 75.4614 38.7091C75.7339 39.1779 76.0853 39.5292 76.5148 39.7652C76.9489 39.9983 77.4549 40.0635 78.0319 39.9617ZM85.5673 34.2769L86.5492 39.8459L84.7126 40.1698L83.0588 30.7905L84.8225 30.4795L85.0917 32.0059L85.2079 31.9854C85.334 31.4565 85.6159 30.9763 86.018 30.6078C86.4307 30.2244 86.992 29.97 87.7001 29.8452C88.3432 29.7318 88.9303 29.7674 89.462 29.9498C89.9903 30.1298 90.4362 30.4584 90.7958 30.9372C91.154 31.4142 91.4016 32.0408 91.5381 32.8148L92.5901 38.7808L90.7524 39.1048L89.7392 33.3585C89.6192 32.678 89.3473 32.1786 88.9233 31.8583C88.4985 31.5342 87.9751 31.4275 87.3526 31.5372C86.9272 31.6122 86.5642 31.7707 86.2638 32.0135C85.9651 32.2601 85.7446 32.5874 85.6279 32.9563C85.5004 33.3392 85.4797 33.7805 85.5673 34.2769ZM97.5373 24.4073L96.122 40.0954L94.4813 40.3847L95.8966 24.6966L97.5373 24.4073ZM102.616 37.0129L100.602 37.368L102.923 24.0628L105.117 23.676L111.851 35.3846L109.836 35.7399L104.473 26.1321L104.375 26.1495L102.616 37.0129ZM102.092 32.0557L108.629 30.903L108.909 32.4905L102.372 33.6432L102.092 32.0557Z" fill="#5452F7"/>
</g>
</g>
</g>
<defs>
<clipPath id="clip0_2_40">
<rect width="198" height="120.34" fill="white" transform="translate(0.560059 35.11) rotate(-9.99999)"/>
</clipPath>
<clipPath id="clip1_2_40">
<rect width="191.997" height="116.002" fill="white" transform="translate(3.13007 36.19) rotate(-9.99999)"/>
</clipPath>
<clipPath id="clip2_2_40">
<rect width="192" height="116" fill="white" transform="translate(3.13007 36.19) rotate(-9.99999)"/>
</clipPath>
</defs>
</svg>
