<svg width="30" height="31" viewBox="0 0 30 31" fill="none" xmlns="http://www.w3.org/2000/svg">
<path d="M12.5 10.11H17.5V8.23499C17.5 7.36969 17.7566 6.52383 18.2373 5.80437C18.7181 5.0849 19.4013 4.52415 20.2008 4.19301C21.0002 3.86188 21.8799 3.77524 22.7285 3.94405C23.5772 4.11286 24.3567 4.52954 24.9686 5.1414C25.5805 5.75325 25.9971 6.5328 26.1659 7.38147C26.3347 8.23013 26.2481 9.1098 25.917 9.90923C25.5858 10.7087 25.0251 11.3919 24.3056 11.8727C23.5862 12.3534 22.7403 12.61 21.875 12.61H20V17.61H21.875C22.7403 17.61 23.5862 17.8666 24.3056 18.3473C25.0251 18.828 25.5858 19.5113 25.917 20.3107C26.2481 21.1102 26.3347 21.9898 26.1659 22.8385C25.9971 23.6872 25.5805 24.4667 24.9686 25.0786C24.3567 25.6904 23.5772 26.1071 22.7285 26.2759C21.8799 26.4447 21.0002 26.3581 20.2008 26.027C19.4013 25.6958 18.7181 25.1351 18.2373 24.4156C17.7566 23.6961 17.5 22.8503 17.5 21.985V20.11H12.5V21.985C12.5 22.8503 12.2434 23.6961 11.7627 24.4156C11.282 25.1351 10.5987 25.6958 9.79924 26.027C8.99982 26.3581 8.12015 26.4447 7.27148 26.2759C6.42282 26.1071 5.64326 25.6904 5.03141 25.0786C4.41956 24.4667 4.00288 23.6872 3.83407 22.8385C3.66526 21.9898 3.7519 21.1102 4.08303 20.3107C4.41416 19.5113 4.97492 18.828 5.69438 18.3473C6.41385 17.8666 7.25971 17.61 8.125 17.61H10V12.61H8.125C7.25971 12.61 6.41385 12.3534 5.69438 11.8727C4.97492 11.3919 4.41416 10.7087 4.08303 9.90923C3.7519 9.1098 3.66526 8.23013 3.83407 7.38147C4.00288 6.5328 4.41956 5.75325 5.03141 5.1414C5.64326 4.52954 6.42282 4.11286 7.27148 3.94405C8.12015 3.77524 8.99982 3.86188 9.79924 4.19301C10.5987 4.52415 11.282 5.0849 11.7627 5.80437C12.2434 6.52383 12.5 7.36969 12.5 8.23499V10.11ZM10 10.11V8.23499C10 7.86415 9.89003 7.50164 9.68401 7.19329C9.47798 6.88495 9.18514 6.64463 8.84253 6.50271C8.49992 6.3608 8.12292 6.32367 7.75921 6.39601C7.39549 6.46836 7.0614 6.64694 6.79918 6.90916C6.53695 7.17139 6.35838 7.50548 6.28603 7.86919C6.21368 8.23291 6.25081 8.60991 6.39273 8.95252C6.53464 9.29513 6.77497 9.58796 7.08331 9.79399C7.39165 10 7.75416 10.11 8.125 10.11H10ZM10 20.11H8.125C7.75416 20.11 7.39165 20.22 7.08331 20.426C6.77497 20.632 6.53464 20.9248 6.39273 21.2675C6.25081 21.6101 6.21368 21.9871 6.28603 22.3508C6.35838 22.7145 6.53695 23.0486 6.79918 23.3108C7.0614 23.573 7.39549 23.7516 7.75921 23.824C8.12292 23.8963 8.49992 23.8592 8.84253 23.7173C9.18514 23.5753 9.47798 23.335 9.68401 23.0267C9.89003 22.7183 10 22.3558 10 21.985V20.11ZM20 10.11H21.875C22.2458 10.11 22.6084 10 22.9167 9.79399C23.225 9.58796 23.4654 9.29513 23.6073 8.95252C23.7492 8.60991 23.7863 8.23291 23.714 7.86919C23.6416 7.50548 23.4631 7.17139 23.2008 6.90916C22.9386 6.64694 22.6045 6.46836 22.2408 6.39601C21.8771 6.32367 21.5001 6.3608 21.1575 6.50271C20.8149 6.64463 20.522 6.88495 20.316 7.19329C20.11 7.50164 20 7.86415 20 8.23499V10.11ZM20 20.11V21.985C20 22.3558 20.11 22.7183 20.316 23.0267C20.522 23.335 20.8149 23.5753 21.1575 23.7173C21.5001 23.8592 21.8771 23.8963 22.2408 23.824C22.6045 23.7516 22.9386 23.573 23.2008 23.3108C23.4631 23.0486 23.6416 22.7145 23.714 22.3508C23.7863 21.9871 23.7492 21.6101 23.6073 21.2675C23.4654 20.9248 23.225 20.632 22.9167 20.426C22.6084 20.22 22.2458 20.11 21.875 20.11H20ZM12.5 12.61V17.61H17.5V12.61H12.5Z" fill="white"/>
</svg>
