<svg xmlns="http://www.w3.org/2000/svg" xmlns:xlink="http://www.w3.org/1999/xlink" width="250" zoomAndPan="magnify" viewBox="0 0 187.5 187.499992" height="250" preserveAspectRatio="xMidYMid meet" version="1.0"><defs><clipPath id="3ad9c697e1"><path d="M 18.699219 46.292969 L 175.035156 46.292969 L 175.035156 140.542969 L 18.699219 140.542969 Z M 18.699219 46.292969 " clip-rule="nonzero"/></clipPath></defs><path fill="#ffffff" d="M 0 0 L 187 0 L 187 187 L 0 187 Z M 0 0 " fill-opacity="1" fill-rule="nonzero"/><path fill="#232323" d="M 0 0 L 187 0 L 187 187 L 0 187 Z M 0 0 " fill-opacity="1" fill-rule="nonzero"/><g clip-path="url(#3ad9c697e1)"><path fill="#ffffff" d="M 55.652344 70.914062 L 85.164062 70.914062 L 85.164062 73.261719 L 58.355469 73.261719 L 58.355469 90.914062 L 83.566406 90.914062 L 83.566406 93.261719 L 58.355469 93.261719 L 58.355469 112.640625 L 85.46875 112.640625 L 85.46875 114.988281 L 55.652344 114.988281 Z M 87.808594 70.914062 L 90.941406 70.914062 L 104.839844 90.296875 L 119.039062 70.914062 L 138.355469 46.292969 L 106.621094 92.332031 L 122.976562 114.988281 L 119.714844 114.988281 L 104.839844 94.371094 L 89.898438 114.988281 L 86.699219 114.988281 L 103.175781 92.332031 Z M 124.144531 73.261719 L 124.144531 70.914062 L 157.773438 70.914062 L 157.773438 73.261719 L 142.28125 73.261719 L 142.28125 114.988281 L 139.578125 114.988281 L 139.578125 73.261719 L 124.144531 73.257812 Z M 18.730469 70.914062 L 22.113281 70.914062 L 68.742188 140.691406 L 49.472656 114.988281 L 21.5625 74.25 L 21.4375 114.988281 L 18.734375 114.988281 L 18.734375 70.914062 Z M 157.5 111.9375 C 156.949219 111.9375 156.535156 111.503906 156.535156 110.953125 C 156.535156 110.398438 156.949219 109.96875 157.5 109.96875 C 158.058594 109.96875 158.46875 110.398438 158.46875 110.953125 C 158.46875 111.503906 158.058594 111.9375 157.5 111.9375 Z M 160.160156 109.351562 L 161.605469 109.351562 C 161.625 110.136719 162.199219 110.660156 163.039062 110.660156 C 163.980469 110.660156 164.511719 110.097656 164.511719 109.035156 L 164.511719 102.316406 L 165.988281 102.316406 L 165.988281 109.042969 C 165.988281 110.953125 164.882812 112.050781 163.054688 112.050781 C 161.339844 112.050781 160.160156 110.984375 160.160156 109.351562 Z M 167.917969 109.265625 L 169.378906 109.265625 C 169.5 110.167969 170.382812 110.742188 171.65625 110.742188 C 172.839844 110.742188 173.707031 110.128906 173.707031 109.285156 C 173.707031 108.5625 173.152344 108.125 171.898438 107.828125 L 170.675781 107.53125 C 168.957031 107.132812 168.175781 106.300781 168.175781 104.902344 C 168.175781 103.210938 169.554688 102.085938 171.628906 102.085938 C 173.554688 102.085938 174.960938 103.210938 175.046875 104.8125 L 173.613281 104.8125 C 173.476562 103.933594 172.710938 103.386719 171.605469 103.386719 C 170.441406 103.386719 169.664062 103.949219 169.664062 104.804688 C 169.664062 105.484375 170.167969 105.871094 171.40625 106.164062 L 172.449219 106.417969 C 174.398438 106.875 175.199219 107.667969 175.199219 109.09375 C 175.199219 110.910156 173.792969 112.050781 171.542969 112.050781 C 169.4375 112.050781 168.023438 110.964844 167.917969 109.265625 Z M 167.917969 109.265625 " fill-opacity="1" fill-rule="nonzero"/></g></svg>