<svg xmlns="http://www.w3.org/2000/svg" xmlns:xlink="http://www.w3.org/1999/xlink" width="250" zoomAndPan="magnify" viewBox="0 0 187.5 187.499992" height="250" preserveAspectRatio="xMidYMid meet" version="1.0"><defs><clipPath id="81916a5e99"><path d="M 13.007812 13.007812 L 173.828125 13.007812 L 173.828125 173.828125 L 13.007812 173.828125 Z M 13.007812 13.007812 " clip-rule="nonzero"/></clipPath></defs><path fill="#ffffff" d="M 0 0 L 187 0 L 187 187 L 0 187 Z M 0 0 " fill-opacity="1" fill-rule="nonzero"/><path fill="#161d2d" d="M 0 0 L 187 0 L 187 187 L 0 187 Z M 0 0 " fill-opacity="1" fill-rule="nonzero"/><g clip-path="url(#81916a5e99)"><path fill="#f03c2e" d="M 170.792969 86.253906 L 100.578125 16.042969 C 100.097656 15.558594 99.574219 15.132812 99.007812 14.753906 C 98.445312 14.375 97.847656 14.054688 97.21875 13.796875 C 96.589844 13.535156 95.941406 13.339844 95.277344 13.207031 C 94.609375 13.074219 93.9375 13.007812 93.253906 13.007812 C 92.574219 13.007812 91.902344 13.074219 91.234375 13.207031 C 90.566406 13.339844 89.921875 13.535156 89.292969 13.796875 C 88.664062 14.054688 88.066406 14.375 87.503906 14.753906 C 86.9375 15.132812 86.414062 15.558594 85.933594 16.042969 L 71.359375 30.617188 L 89.851562 49.109375 C 94.15625 47.601562 99.082031 48.632812 102.507812 52.058594 C 103.324219 52.878906 104.011719 53.792969 104.570312 54.800781 C 105.128906 55.8125 105.535156 56.878906 105.792969 58.007812 C 106.054688 59.132812 106.152344 60.269531 106.089844 61.425781 C 106.027344 62.578125 105.804688 63.699219 105.429688 64.789062 L 123.253906 82.617188 C 127.566406 81.128906 132.542969 82.089844 135.984375 85.542969 C 136.554688 86.113281 137.066406 86.734375 137.519531 87.410156 C 137.96875 88.082031 138.347656 88.792969 138.65625 89.539062 C 138.96875 90.289062 139.203125 91.058594 139.359375 91.851562 C 139.519531 92.648438 139.597656 93.449219 139.597656 94.257812 C 139.597656 95.070312 139.519531 95.871094 139.359375 96.664062 C 139.203125 97.457031 138.96875 98.230469 138.660156 98.976562 C 138.347656 99.726562 137.96875 100.4375 137.519531 101.109375 C 137.070312 101.78125 136.558594 102.40625 135.984375 102.976562 C 135.414062 103.550781 134.789062 104.058594 134.117188 104.511719 C 133.445312 104.960938 132.734375 105.339844 131.984375 105.648438 C 131.238281 105.957031 130.464844 106.191406 129.671875 106.351562 C 128.878906 106.507812 128.074219 106.585938 127.265625 106.585938 C 126.457031 106.585938 125.65625 106.507812 124.859375 106.347656 C 124.066406 106.191406 123.296875 105.957031 122.546875 105.644531 C 121.800781 105.335938 121.089844 104.953125 120.417969 104.503906 C 119.746094 104.054688 119.121094 103.542969 118.550781 102.96875 C 114.929688 99.351562 114.035156 94.023438 115.867188 89.566406 L 99.242188 72.941406 L 99.242188 116.691406 C 100.457031 117.292969 101.542969 118.070312 102.507812 119.023438 C 103.082031 119.59375 103.589844 120.21875 104.039062 120.890625 C 104.488281 121.5625 104.871094 122.273438 105.179688 123.019531 C 105.488281 123.769531 105.722656 124.539062 105.878906 125.332031 C 106.039062 126.125 106.117188 126.925781 106.117188 127.738281 C 106.117188 128.546875 106.039062 129.347656 105.878906 130.140625 C 105.722656 130.933594 105.488281 131.707031 105.179688 132.453125 C 104.871094 133.199219 104.488281 133.910156 104.039062 134.582031 C 103.589844 135.257812 103.082031 135.878906 102.507812 136.453125 C 101.9375 137.023438 101.3125 137.535156 100.640625 137.984375 C 99.96875 138.433594 99.257812 138.8125 98.507812 139.121094 C 97.761719 139.433594 96.992188 139.667969 96.199219 139.824219 C 95.402344 139.980469 94.601562 140.0625 93.792969 140.0625 C 92.984375 140.0625 92.183594 139.980469 91.390625 139.824219 C 90.59375 139.667969 89.824219 139.433594 89.078125 139.121094 C 88.328125 138.8125 87.621094 138.433594 86.945312 137.984375 C 86.273438 137.535156 85.652344 137.023438 85.078125 136.453125 C 84.507812 135.878906 83.996094 135.257812 83.542969 134.585938 C 83.09375 133.910156 82.714844 133.203125 82.402344 132.453125 C 82.09375 131.707031 81.859375 130.933594 81.703125 130.140625 C 81.542969 129.347656 81.464844 128.546875 81.464844 127.738281 C 81.464844 126.925781 81.542969 126.125 81.703125 125.332031 C 81.859375 124.539062 82.09375 123.765625 82.402344 123.019531 C 82.714844 122.273438 83.09375 121.5625 83.542969 120.890625 C 83.996094 120.214844 84.507812 119.59375 85.078125 119.023438 C 86.269531 117.835938 87.589844 116.9375 89.113281 116.332031 L 89.113281 72.179688 C 87.648438 71.574219 86.269531 70.683594 85.078125 69.488281 C 84.214844 68.625 83.492188 67.652344 82.917969 66.574219 C 82.339844 65.496094 81.9375 64.355469 81.699219 63.15625 C 81.464844 61.957031 81.40625 60.75 81.53125 59.53125 C 81.652344 58.316406 81.953125 57.144531 82.425781 56.015625 L 64.183594 37.78125 L 16.035156 85.878906 C 15.554688 86.359375 15.125 86.882812 14.746094 87.449219 C 14.367188 88.011719 14.050781 88.609375 13.789062 89.238281 C 13.527344 89.867188 13.332031 90.515625 13.199219 91.183594 C 13.066406 91.847656 13 92.523438 13 93.203125 C 13 93.882812 13.066406 94.558594 13.199219 95.222656 C 13.332031 95.890625 13.527344 96.539062 13.789062 97.167969 C 14.050781 97.796875 14.367188 98.394531 14.746094 98.957031 C 15.125 99.523438 15.554688 100.046875 16.035156 100.527344 L 86.253906 170.734375 C 86.734375 171.21875 87.257812 171.648438 87.824219 172.023438 C 88.390625 172.402344 88.984375 172.722656 89.613281 172.980469 C 90.242188 173.242188 90.890625 173.4375 91.558594 173.570312 C 92.222656 173.703125 92.898438 173.769531 93.578125 173.769531 C 94.257812 173.769531 94.929688 173.703125 95.597656 173.570312 C 96.265625 173.4375 96.914062 173.242188 97.539062 172.980469 C 98.167969 172.722656 98.765625 172.402344 99.332031 172.023438 C 99.894531 171.648438 100.417969 171.21875 100.898438 170.734375 L 170.792969 100.953125 C 171.273438 100.472656 171.703125 99.949219 172.082031 99.386719 C 172.460938 98.820312 172.777344 98.222656 173.039062 97.59375 C 173.300781 96.964844 173.496094 96.320312 173.628906 95.652344 C 173.761719 94.984375 173.828125 94.308594 173.828125 93.628906 C 173.828125 92.949219 173.761719 92.277344 173.628906 91.609375 C 173.496094 90.941406 173.300781 90.292969 173.039062 89.664062 C 172.777344 89.035156 172.460938 88.441406 172.082031 87.875 C 171.703125 87.308594 171.273438 86.785156 170.792969 86.304688 " fill-opacity="1" fill-rule="nonzero"/></g></svg>