<svg xmlns="http://www.w3.org/2000/svg" xmlns:xlink="http://www.w3.org/1999/xlink" width="250" zoomAndPan="magnify" viewBox="0 0 187.5 187.499992" height="250" preserveAspectRatio="xMidYMid meet" version="1.0"><defs><clipPath id="2a2c235e2d"><path d="M 7 9.351562 L 168 9.351562 L 168 177 L 7 177 Z M 7 9.351562 " clip-rule="nonzero"/></clipPath></defs><path fill="#ffffff" d="M 0 0 L 187 0 L 187 187 L 0 187 Z M 0 0 " fill-opacity="1" fill-rule="nonzero"/><path fill="#161d2d" d="M 0 0 L 187 0 L 187 187 L 0 187 Z M 0 0 " fill-opacity="1" fill-rule="nonzero"/><path fill="#ffffff" d="M 157.1875 113.089844 L 157.214844 113.0625 L 157.175781 113.089844 Z M 157.1875 113.089844 " fill-opacity="1" fill-rule="nonzero"/><path fill="#ffffff" d="M 136.589844 111.769531 L 136.601562 111.785156 L 136.601562 111.792969 L 136.582031 111.796875 C 135.574219 112.167969 134.738281 112.320312 134.035156 112.632812 C 133.320312 112.917969 132.742188 113.441406 132.402344 114.105469 L 132.394531 114.121094 C 131.964844 114.921875 131.589844 116.339844 131.699219 118.753906 C 131.984375 118.960938 132.332031 119.121094 132.6875 119.234375 L 132.714844 119.238281 C 133.890625 119.601562 135.859375 119.835938 138.054688 119.804688 C 142.4375 119.753906 147.835938 118.71875 150.699219 117.367188 C 153.167969 116.195312 155.28125 114.773438 157.167969 113.089844 C 147.597656 115.09375 142.195312 114.558594 138.878906 113.175781 C 138.015625 112.800781 137.257812 112.332031 136.589844 111.769531 Z M 136.589844 111.769531 " fill-opacity="1" fill-rule="nonzero"/><path fill="#ffffff" d="M 126.777344 38.21875 L 126.816406 38.28125 L 126.867188 38.335938 Z M 126.777344 38.21875 " fill-opacity="1" fill-rule="nonzero"/><path fill="#ffffff" d="M 90.175781 143.566406 C 90.167969 143.394531 90.175781 143.210938 90.167969 143.039062 C 90.167969 142.96875 90.160156 142.921875 90.160156 142.851562 Z M 90.175781 143.566406 " fill-opacity="1" fill-rule="nonzero"/><path fill="#ffffff" d="M 82.835938 112.875 C 82.433594 112.675781 81.960938 112.527344 81.453125 112.457031 L 81.433594 112.457031 L 81.433594 112.445312 L 81.285156 112.445312 C 80.925781 112.480469 80.394531 112.605469 79.367188 113.753906 C 76.972656 116.464844 76.140625 118.167969 74.164062 119.761719 C 72.191406 121.347656 69.628906 122.195312 64.511719 123.257812 C 62.890625 123.59375 61.960938 123.960938 61.347656 124.261719 C 61.550781 124.425781 61.527344 124.46875 61.828125 124.628906 C 62.578125 125.046875 63.539062 125.414062 64.316406 125.617188 C 66.515625 126.171875 70.132812 126.820312 73.902344 126.171875 C 77.667969 125.519531 81.59375 123.691406 84.9375 118.941406 C 85.515625 118.121094 85.578125 116.910156 85.105469 115.609375 C 84.632812 114.308594 83.574219 113.1875 82.835938 112.875 Z M 82.835938 112.875 " fill-opacity="1" fill-rule="nonzero"/><path fill="#ffffff" d="M 110.917969 19.796875 L 110.523438 19.871094 C 110.65625 19.84375 110.800781 19.832031 110.933594 19.804688 C 110.925781 19.804688 110.925781 19.796875 110.917969 19.796875 Z M 110.917969 19.796875 " fill-opacity="1" fill-rule="nonzero"/><path fill="#ffffff" d="M 130.265625 57.335938 C 125.601562 57.398438 122.984375 58.617188 121.609375 60.210938 C 119.660156 62.46875 119.480469 66.433594 120.691406 71.316406 C 121.894531 76.203125 124.375 81.671875 126.714844 86.210938 C 127.882812 88.488281 129.015625 90.53125 129.925781 92.191406 C 130.84375 93.863281 131.519531 95.042969 131.929688 96.054688 C 132.304688 96.984375 132.730469 97.804688 133.152344 98.570312 C 134.960938 94.710938 135.28125 90.921875 135.101562 86.96875 C 134.863281 82.082031 133.738281 77.082031 133.90625 72.019531 C 134.09375 66.097656 135.246094 62.246094 135.34375 57.671875 C 133.820312 57.460938 132.054688 57.335938 130.265625 57.335938 Z M 131.128906 60.855469 L 131.121094 60.910156 C 131.121094 60.933594 131.121094 60.953125 131.121094 60.980469 C 131.121094 61.300781 131.03125 61.605469 130.871094 61.855469 L 130.878906 61.851562 C 130.664062 62.246094 130.414062 62.59375 130.121094 62.894531 C 129.441406 63.652344 128.527344 64.179688 127.5 64.359375 L 127.472656 64.367188 C 127.324219 64.390625 127.160156 64.394531 126.984375 64.394531 C 126.109375 64.394531 125.300781 64.117188 124.640625 63.644531 L 124.65625 63.652344 C 124.3125 63.414062 124.015625 63.144531 123.773438 62.835938 L 123.765625 62.832031 C 123.550781 62.59375 123.394531 62.289062 123.332031 61.960938 L 123.332031 61.949219 C 123.332031 61.914062 123.328125 61.878906 123.328125 61.84375 C 123.328125 61.542969 123.4375 61.265625 123.625 61.058594 C 123.847656 60.800781 124.113281 60.589844 124.417969 60.4375 L 124.433594 60.429688 C 125.09375 60.054688 125.984375 59.777344 126.992188 59.625 C 127.367188 59.570312 127.742188 59.542969 128.089844 59.535156 L 128.089844 59.554688 L 128.429688 59.554688 C 128.882812 59.570312 129.300781 59.617188 129.667969 59.707031 C 130.039062 59.792969 130.359375 59.917969 130.613281 60.089844 C 130.871094 60.265625 131.066406 60.527344 131.128906 60.855469 Z M 131.128906 60.855469 " fill-opacity="1" fill-rule="nonzero"/><path fill="#ffffff" d="M 53.730469 87.984375 C 53.730469 86.734375 53.828125 85.511719 54.011719 84.308594 L 53.996094 84.4375 C 54.707031 79.300781 54.804688 74.492188 54.71875 70.695312 C 54.636719 66.996094 54.371094 64.535156 54.371094 62.996094 C 54.371094 62.976562 54.371094 62.957031 54.371094 62.933594 C 54.371094 62.914062 54.371094 62.886719 54.371094 62.867188 L 54.371094 62.832031 L 54.363281 62.789062 L 54.363281 62.78125 C 54.363281 62.769531 54.363281 62.761719 54.363281 62.746094 C 54.363281 54.511719 55.8125 46.621094 58.433594 39.296875 C 60.359375 34.121094 63.226562 28.871094 67.515625 24.617188 C 63.292969 23.210938 55.8125 21.070312 47.703125 20.664062 C 46.921875 20.625 46.011719 20.59375 45.101562 20.59375 L 45.09375 20.59375 L 45.09375 20.601562 C 44.226562 20.601562 43.347656 20.628906 42.488281 20.679688 C 35.546875 21.082031 28.980469 23.121094 24.292969 28.15625 C 19.59375 33.191406 16.496094 41.445312 17.171875 55.109375 C 17.304688 57.699219 18.417969 64.945312 20.320312 73.554688 C 22.234375 82.164062 24.925781 92.296875 28.167969 101.25 C 31.414062 110.199219 35.351562 117.988281 39.09375 121.671875 C 40.976562 123.515625 42.613281 124.261719 44.09375 124.199219 C 45.582031 124.128906 47.375 123.257812 49.566406 120.597656 C 53.871094 115.351562 57.941406 110.714844 62.140625 106.207031 L 62 106.351562 C 56.925781 101.867188 53.730469 95.308594 53.730469 87.984375 Z M 53.730469 87.984375 " fill-opacity="1" fill-rule="nonzero"/><path fill="#ffffff" d="M 90.722656 20.253906 L 90.722656 20.242188 C 82.601562 20.261719 76.78125 22.746094 72.355469 26.464844 C 67.800781 30.3125 64.75 35.574219 62.738281 40.964844 C 60.351562 47.363281 59.539062 53.554688 59.210938 57.753906 L 59.300781 57.699219 C 61.757812 56.308594 64.976562 54.917969 68.425781 54.109375 C 71.875 53.304688 75.589844 53.058594 78.957031 54.382812 C 82.324219 55.703125 85.105469 58.8125 86.113281 63.527344 C 90.945312 86.175781 84.609375 94.597656 82.273438 100.957031 C 81.53125 102.785156 80.757812 105.136719 80.109375 107.535156 L 80 108 C 80.292969 107.929688 80.589844 107.847656 80.882812 107.820312 C 82.53125 107.679688 83.824219 108.238281 84.589844 108.570312 C 86.941406 109.558594 88.554688 111.632812 89.421875 113.996094 C 89.652344 114.613281 89.8125 115.28125 89.910156 115.972656 C 90 116.207031 90.050781 116.484375 90.050781 116.769531 C 90.050781 116.796875 90.050781 116.828125 90.050781 116.855469 C 89.9375 120.332031 89.867188 124.414062 89.867188 128.515625 C 89.867188 133.378906 89.964844 138.21875 90.144531 143.039062 C 90.304688 146.695312 90.535156 149.9375 90.820312 152.488281 C 91.121094 155.089844 91.539062 157.058594 91.800781 157.726562 C 92.679688 159.953125 93.964844 162.867188 96.289062 164.847656 C 98.609375 166.824219 101.941406 168.144531 108.027344 166.824219 C 113.304688 165.675781 116.558594 164.082031 118.738281 161.792969 C 120.914062 159.507812 122.207031 156.320312 123.035156 151.445312 C 124.28125 144.144531 126.777344 122.96875 127.082031 118.980469 C 126.941406 115.976562 127.382812 113.667969 128.335938 111.910156 C 129.308594 110.101562 130.824219 108.996094 132.125 108.398438 C 132.777344 108.097656 133.390625 107.898438 133.890625 107.75 C 133.277344 106.867188 132.730469 106.128906 132.160156 105.414062 L 132.222656 105.492188 C 130.421875 103.292969 128.882812 100.769531 127.722656 98.050781 L 127.644531 97.847656 C 126.941406 96.394531 126.351562 95.296875 125.734375 94.21875 L 125.878906 94.488281 C 124.96875 92.820312 123.8125 90.734375 122.601562 88.390625 C 120.183594 83.695312 117.554688 78.003906 116.183594 72.464844 C 114.820312 66.925781 114.625 61.195312 118.117188 57.15625 C 121.207031 53.566406 126.636719 52.078125 134.78125 52.914062 C 134.542969 52.183594 134.398438 51.578125 133.988281 50.605469 C 132.007812 45.945312 129.621094 41.925781 126.789062 38.28125 C 119.882812 29.367188 108.722656 20.539062 91.488281 20.253906 Z M 90.722656 20.253906 " fill-opacity="1" fill-rule="nonzero"/><path fill="#ffffff" d="M 59.113281 63.386719 L 59.128906 63.378906 L 59.148438 63.359375 Z M 59.113281 63.386719 " fill-opacity="1" fill-rule="nonzero"/><path fill="#ffffff" d="M 103.484375 12.277344 C 103.601562 12.242188 103.730469 12.230469 103.839844 12.203125 L 103.980469 12.160156 Z M 103.484375 12.277344 " fill-opacity="1" fill-rule="nonzero"/><path fill="#ffffff" d="M 69.339844 58.679688 L 69.40625 58.671875 L 69.464844 58.652344 Z M 69.339844 58.679688 " fill-opacity="1" fill-rule="nonzero"/><path fill="#ffffff" d="M 77.953125 99.320312 C 80.742188 91.714844 86.230469 86.164062 81.613281 64.507812 C 80.855469 60.960938 79.359375 59.527344 77.300781 58.722656 C 76.300781 58.351562 75.136719 58.136719 73.921875 58.136719 C 73.84375 58.136719 73.761719 58.136719 73.683594 58.136719 L 73.699219 58.136719 C 72.21875 58.152344 70.785156 58.339844 69.40625 58.671875 C 66.488281 59.410156 63.914062 60.453125 61.519531 61.789062 C 60.625 62.28125 59.851562 62.796875 59.128906 63.375 L 58.996094 63.5 C 59.039062 64.515625 59.234375 66.976562 59.316406 70.597656 C 59.398438 74.5625 59.300781 79.621094 58.542969 85.09375 C 56.902344 96.984375 65.429688 106.832031 75.445312 106.847656 C 76.035156 104.40625 76.996094 101.929688 77.953125 99.320312 Z M 72.035156 64.765625 C 71.710938 64.429688 71.445312 64.054688 71.230469 63.644531 L 71.214844 63.617188 C 71.035156 63.324219 70.929688 62.96875 70.929688 62.585938 C 70.929688 62.519531 70.9375 62.449219 70.945312 62.378906 L 70.945312 62.386719 C 71.050781 61.632812 71.660156 61.246094 72.253906 61.03125 C 72.800781 60.847656 73.414062 60.746094 74.066406 60.746094 C 74.164062 60.746094 74.261719 60.746094 74.375 60.75 L 74.367188 60.722656 C 74.726562 60.722656 75.117188 60.757812 75.507812 60.8125 C 76.558594 60.960938 77.496094 61.246094 78.207031 61.664062 C 78.558594 61.855469 78.867188 62.101562 79.109375 62.394531 L 79.117188 62.398438 C 79.351562 62.671875 79.492188 63.027344 79.492188 63.421875 C 79.492188 63.476562 79.492188 63.535156 79.484375 63.589844 L 79.484375 63.582031 C 79.414062 64 79.226562 64.359375 78.96875 64.652344 C 78.683594 65 78.363281 65.300781 78.003906 65.550781 L 77.988281 65.558594 C 77.289062 66.070312 76.402344 66.378906 75.453125 66.378906 C 75.261719 66.378906 75.074219 66.363281 74.894531 66.34375 L 74.914062 66.34375 C 73.761719 66.148438 72.773438 65.578125 72.035156 64.765625 Z M 72.035156 64.765625 " fill-opacity="1" fill-rule="nonzero"/><path fill="#ffffff" d="M 61.382812 61.855469 C 61.429688 61.828125 61.480469 61.816406 61.519531 61.789062 C 61.527344 61.789062 61.535156 61.78125 61.542969 61.773438 Z M 61.382812 61.855469 " fill-opacity="1" fill-rule="nonzero"/><path fill="#ffffff" d="M 130.496094 35.445312 C 133.507812 39.304688 136.117188 43.699219 138.125 48.414062 L 138.273438 48.796875 C 139.03125 50.632812 139.539062 52.183594 139.824219 53.386719 C 139.96875 53.992188 140.066406 54.5 140.101562 55.027344 C 140.113281 55.292969 140.128906 55.5625 140.019531 56.03125 C 140.019531 56.050781 139.984375 56.097656 139.976562 56.121094 C 140.183594 62.210938 138.6875 66.34375 138.515625 72.15625 C 138.375 76.371094 139.441406 81.324219 139.703125 86.726562 C 139.957031 91.804688 139.351562 97.382812 136.089844 102.855469 C 136.367188 103.1875 136.609375 103.523438 136.875 103.855469 C 145.492188 90.121094 151.703125 74.925781 155.011719 61.96875 C 156.785156 54.992188 157.722656 48.671875 157.808594 43.664062 C 157.878906 38.65625 156.953125 35.027344 155.785156 33.511719 C 146.5625 21.578125 134.09375 18.535156 123.632812 18.453125 L 123.632812 18.460938 L 122.632812 18.460938 C 118.597656 18.523438 114.703125 18.988281 110.941406 19.804688 C 119.480469 23.640625 125.949219 29.554688 130.496094 35.445312 Z M 130.496094 35.445312 " fill-opacity="1" fill-rule="nonzero"/><g clip-path="url(#2a2c235e2d)"><path fill="#ffffff" d="M 91.871094 11.144531 L 91.800781 11.144531 C 83.707031 11.003906 76.757812 12.996094 71.144531 16.304688 C 65.625 14.363281 54.171875 11.019531 42.089844 11.6875 C 33.683594 12.152344 24.5 14.738281 17.699219 22.007812 C 10.917969 29.273438 7.339844 40.519531 8.089844 55.820312 C 8.296875 60.042969 9.488281 66.925781 11.457031 75.84375 C 13.429688 84.757812 16.199219 95.199219 19.65625 104.71875 C 23.109375 114.246094 26.894531 122.800781 32.8125 128.613281 C 35.769531 131.527344 39.835938 133.976562 44.628906 133.773438 C 47.996094 133.636719 51.035156 132.140625 53.664062 129.9375 C 54.941406 131.640625 56.304688 132.382812 57.550781 133.074219 C 59.113281 133.941406 60.636719 134.53125 62.214844 134.921875 C 65.054688 135.636719 69.910156 136.597656 75.597656 135.617188 C 77.539062 135.289062 79.574219 134.652344 81.605469 133.738281 C 81.683594 136.035156 81.773438 138.28125 81.855469 140.554688 C 82.140625 147.761719 82.316406 154.414062 84.449219 160.25 C 84.792969 161.203125 85.738281 166.113281 89.445312 170.445312 C 93.152344 174.785156 100.425781 177.492188 108.703125 175.695312 C 114.542969 174.429688 121.964844 172.148438 126.902344 165.042969 C 131.777344 158.019531 133.972656 147.941406 134.414062 131.597656 C 134.523438 130.714844 134.65625 129.964844 134.789062 129.261719 L 135.949219 129.367188 L 136.089844 129.367188 C 142.320312 129.652344 149.078125 128.753906 154.726562 126.097656 C 159.726562 123.753906 163.511719 121.382812 166.269531 117.175781 C 166.960938 116.132812 167.710938 114.871094 167.917969 112.703125 C 168.128906 110.53125 166.898438 107.136719 164.851562 105.574219 C 160.761719 102.429688 158.195312 103.625 155.441406 104.203125 C 152.988281 104.78125 150.152344 105.144531 147.242188 105.21875 L 147.1875 105.21875 C 155.128906 91.679688 160.824219 77.296875 164.074219 64.570312 C 166 57.058594 167.078125 50.132812 167.160156 44.074219 C 167.25 38.015625 166.765625 32.65625 163.175781 28.015625 C 151.972656 13.523438 136.21875 9.515625 124.027344 9.378906 C 123.652344 9.371094 123.269531 9.363281 122.894531 9.371094 L 122.894531 9.351562 C 116.261719 9.40625 109.875 10.40625 103.832031 12.195312 L 103.546875 12.292969 C 100.054688 11.636719 96.003906 11.222656 91.871094 11.144531 Z M 108.347656 15.574219 C 112.601562 14.523438 117.5 13.890625 122.535156 13.828125 L 122.574219 13.828125 L 122.582031 13.800781 C 134.113281 13.691406 148.835938 16.964844 159.414062 30.644531 C 161.792969 33.71875 162.5 38.210938 162.417969 43.746094 C 162.328125 49.277344 161.320312 55.898438 159.46875 63.152344 C 155.882812 77.199219 149.105469 93.578125 139.566406 108.273438 C 139.878906 108.5 140.242188 108.703125 140.617188 108.855469 L 140.652344 108.871094 C 142.640625 109.703125 147.179688 110.421875 156.242188 108.535156 C 158.523438 108.050781 160.191406 107.722656 161.925781 109.058594 C 162.703125 109.726562 163.191406 110.714844 163.191406 111.820312 C 163.191406 111.886719 163.191406 111.957031 163.183594 112.027344 L 163.183594 112.019531 C 163.078125 112.902344 162.765625 113.695312 162.285156 114.359375 C 160.535156 117.019531 157.078125 119.546875 152.652344 121.625 C 148.730469 123.476562 143.105469 124.441406 138.117188 124.496094 C 135.617188 124.523438 133.3125 124.332031 131.351562 123.710938 L 131.226562 123.664062 C 130.46875 131.035156 128.730469 145.589844 127.597656 152.230469 C 126.691406 157.585938 125.105469 161.84375 122.074219 165.027344 C 119.050781 168.214844 114.773438 170.132812 109.015625 171.386719 C 101.886719 172.9375 96.683594 171.265625 93.332031 168.410156 C 89.988281 165.558594 88.457031 161.773438 87.53125 159.457031 C 86.898438 157.859375 86.570312 155.785156 86.25 153.019531 C 85.933594 150.25 85.703125 146.863281 85.542969 143.046875 C 85.390625 139.164062 85.304688 134.601562 85.304688 130.019531 C 85.304688 128.511719 85.320312 127.007812 85.332031 125.5 C 82.460938 128.167969 78.832031 130.046875 74.796875 130.761719 L 74.671875 130.785156 C 69.9375 131.597656 65.714844 130.796875 63.191406 130.160156 C 61.847656 129.816406 60.679688 129.335938 59.582031 128.738281 C 58.425781 128.113281 57.328125 127.398438 56.589844 126 C 56.296875 125.464844 56.125 124.816406 56.125 124.136719 C 56.125 123.863281 56.152344 123.59375 56.207031 123.34375 C 56.457031 122.410156 56.980469 121.617188 57.695312 121.0625 L 57.703125 121.054688 C 59.066406 119.933594 60.859375 119.308594 63.578125 118.738281 C 68.515625 117.710938 70.242188 117.007812 71.292969 116.164062 C 72.183594 115.441406 73.199219 113.980469 74.976562 111.839844 C 74.972656 111.777344 74.964844 111.671875 74.957031 111.574219 L 74.957031 111.554688 C 71.589844 111.457031 68.453125 110.546875 65.714844 109.007812 L 65.820312 109.066406 C 64.789062 110.164062 59.523438 115.796875 53.113281 123.613281 C 50.414062 126.882812 47.429688 128.761719 44.289062 128.894531 C 41.144531 129.023438 38.300781 127.425781 35.878906 125.054688 C 31.046875 120.304688 27.191406 112.132812 23.835938 102.894531 C 20.480469 93.660156 17.757812 83.375 15.816406 74.613281 C 13.867188 65.847656 12.726562 58.785156 12.5625 55.375 C 11.835938 40.894531 15.183594 31.140625 20.921875 24.984375 C 26.664062 18.828125 34.539062 16.5 42.207031 16.054688 C 55.984375 15.253906 69.058594 20.117188 71.710938 21.160156 C 76.8125 17.652344 83.386719 15.46875 91.585938 15.609375 C 95.71875 15.671875 99.6875 16.222656 103.484375 17.203125 L 103.136719 17.125 L 103.277344 17.0625 C 104.605469 16.5625 106.300781 16.054688 108.039062 15.636719 Z M 108.347656 15.574219 " fill-opacity="1" fill-rule="nonzero"/></g></svg>