<svg xmlns="http://www.w3.org/2000/svg" xmlns:xlink="http://www.w3.org/1999/xlink" width="250" zoomAndPan="magnify" viewBox="0 0 187.5 187.499992" height="250" preserveAspectRatio="xMidYMid meet" version="1.0"><defs><clipPath id="ff0b22d3a5"><path d="M 6.386719 13.683594 L 180 13.683594 L 180 169 L 6.386719 169 Z M 6.386719 13.683594 " clip-rule="nonzero"/></clipPath></defs><path fill="#ffffff" d="M 0 0 L 187 0 L 187 187 L 0 187 Z M 0 0 " fill-opacity="1" fill-rule="nonzero"/><path fill="#161d2d" d="M 0 0 L 187 0 L 187 187 L 0 187 Z M 0 0 " fill-opacity="1" fill-rule="nonzero"/><path fill="#000000" d="M 13.871094 172.769531 L 13.863281 172.714844 L 13.859375 172.691406 Z M 13.871094 172.769531 " fill-opacity="1" fill-rule="nonzero"/><path fill="#41b883" d="M 11.488281 19.089844 L 93.167969 159.671875 L 174.851562 19.089844 L 142.175781 19.089844 L 93.167969 103.441406 L 43.75 19.089844 Z M 11.488281 19.089844 " fill-opacity="1" fill-rule="nonzero"/><path fill="#35495e" d="M 43.75 19.089844 L 93.167969 103.851562 L 142.183594 19.089844 L 111.957031 19.089844 L 93.167969 51.691406 L 73.96875 19.089844 Z M 43.75 19.089844 " fill-opacity="1" fill-rule="nonzero"/><g clip-path="url(#ff0b22d3a5)"><path fill="#000000" d="M 93.167969 168.683594 C 91.210938 168.683594 89.40625 167.632812 88.445312 165.929688 L 7.152344 21.78125 C 6.210938 20.105469 6.226562 18.054688 7.195312 16.394531 C 8.171875 14.738281 9.949219 13.71875 11.878906 13.71875 L 42.71875 13.71875 C 42.914062 13.699219 43.121094 13.683594 43.332031 13.683594 L 73.976562 13.683594 C 75.921875 13.683594 77.707031 14.722656 78.675781 16.394531 L 93.167969 41.539062 L 107.6875 16.394531 C 108.65625 14.722656 110.445312 13.683594 112.382812 13.683594 L 143.027344 13.683594 C 143.257812 13.683594 143.484375 13.699219 143.707031 13.726562 L 174.460938 13.726562 C 176.390625 13.726562 178.167969 14.75 179.136719 16.402344 C 180.105469 18.058594 180.125 20.113281 179.179688 21.789062 L 97.886719 165.929688 C 96.933594 167.632812 95.128906 168.683594 93.167969 168.683594 Z M 21.148438 24.535156 L 93.167969 152.253906 L 165.191406 24.542969 L 143.007812 24.542969 C 142.777344 24.542969 142.550781 24.527344 142.328125 24.496094 L 115.519531 24.496094 L 97.867188 55.074219 C 96.898438 56.753906 95.105469 57.78125 93.167969 57.78125 C 91.226562 57.78125 89.441406 56.746094 88.472656 55.074219 L 70.839844 24.496094 L 43.945312 24.496094 C 43.75 24.519531 43.542969 24.535156 43.332031 24.535156 Z M 21.148438 24.535156 " fill-opacity="1" fill-rule="nonzero"/></g></svg>