<svg xmlns="http://www.w3.org/2000/svg" xmlns:xlink="http://www.w3.org/1999/xlink" width="250" zoomAndPan="magnify" viewBox="0 0 187.5 187.499992" height="250" preserveAspectRatio="xMidYMid meet" version="1.0"><defs><clipPath id="3db16cb39d"><path d="M 0 3.339844 L 182 3.339844 L 182 168 L 0 168 Z M 0 3.339844 " clip-rule="nonzero"/></clipPath></defs><path fill="#ffffff" d="M 0 0 L 187 0 L 187 187 L 0 187 Z M 0 0 " fill-opacity="1" fill-rule="nonzero"/><path fill="#161d2d" d="M 0 0 L 187 0 L 187 187 L 0 187 Z M 0 0 " fill-opacity="1" fill-rule="nonzero"/><g clip-path="url(#3db16cb39d)"><path fill="#e94e36" d="M 109.445312 3.144531 C 128.152344 28.234375 135.539062 58.078125 129.019531 84.898438 C 128.585938 87.050781 127.714844 89.65625 126.847656 91.8125 C 125.46875 91.046875 124.328125 90.339844 123.234375 89.570312 L 123.359375 89.65625 C 123.359375 89.65625 81.179688 63.707031 35.964844 18.289062 C 34.652344 16.992188 60.3125 54.613281 89.011719 84.460938 C 75.535156 76.671875 37.265625 49.433594 13.34375 27.367188 C 15.957031 32.121094 19.871094 36.878906 23.78125 41.640625 C 43.789062 67.164062 69.882812 98.292969 101.195312 122.082031 C 79.015625 135.503906 48.136719 136.355469 16.824219 122.082031 C 8.992188 118.632812 2.480469 114.304688 -4.917969 109.109375 C 8.125 129.441406 28.566406 148.046875 52.921875 157.988281 C 82.058594 170.539062 111.625 169.671875 132.933594 157.988281 L 133.378906 157.988281 C 134.246094 157.554688 135.113281 157.125 135.984375 156.257812 C 146.421875 151.0625 166.863281 145.441406 178.167969 167.074219 C 181.207031 173.128906 186.859375 145.015625 165.558594 119.066406 L 165.550781 119.066406 C 165.984375 118.207031 165.984375 117.335938 166.417969 116.476562 C 176.855469 75.808594 152.066406 28.234375 109.445312 3.144531 Z M 109.445312 3.144531 " fill-opacity="1" fill-rule="nonzero"/></g></svg>