<svg xmlns="http://www.w3.org/2000/svg" xmlns:xlink="http://www.w3.org/1999/xlink" width="250" zoomAndPan="magnify" viewBox="0 0 187.5 187.499992" height="250" preserveAspectRatio="xMidYMid meet" version="1.0"><path fill="#ffffff" d="M 0 0 L 187 0 L 187 187 L 0 187 Z M 0 0 " fill-opacity="1" fill-rule="nonzero"/><path fill="#ffffff" d="M 0 0 L 187 0 L 187 187 L 0 187 Z M 0 0 " fill-opacity="1" fill-rule="nonzero"/><path fill="#007acc" d="M 0 187 L 187 187 L 187 0 L 0 0 Z M 0 187 " fill-opacity="1" fill-rule="nonzero"/><path fill="#ffffff" d="M 41.34375 94.113281 L 41.285156 101.777344 L 65.625 101.777344 L 65.625 170.9375 L 82.84375 170.9375 L 82.84375 101.777344 L 107.183594 101.777344 L 107.183594 94.269531 C 107.183594 90.109375 107.09375 86.632812 106.976562 86.546875 C 106.886719 86.429688 92.074219 86.371094 74.113281 86.402344 L 41.433594 86.488281 Z M 41.34375 94.113281 " fill-opacity="1" fill-rule="nonzero"/><path fill="#ffffff" d="M 150.894531 86.277344 C 155.640625 87.460938 159.265625 89.570312 162.589844 93.011719 C 164.304688 94.851562 166.863281 98.203125 167.066406 99.007812 C 167.125 99.25 158.996094 104.707031 154.0625 107.765625 C 153.890625 107.882812 153.179688 107.109375 152.375 105.925781 C 149.972656 102.417969 147.445312 100.90625 143.589844 100.644531 C 137.921875 100.257812 134.269531 103.222656 134.296875 108.183594 C 134.296875 109.636719 134.507812 110.5 135.101562 111.683594 C 136.351562 114.269531 138.664062 115.808594 145.933594 118.957031 C 159.324219 124.714844 165.050781 128.511719 168.617188 133.917969 C 172.589844 139.945312 173.480469 149.558594 170.777344 156.707031 C 167.8125 164.488281 160.449219 169.769531 150.089844 171.523438 C 146.882812 172.085938 139.285156 171.996094 135.839844 171.375 C 128.328125 170.039062 121.207031 166.328125 116.816406 161.464844 C 115.09375 159.566406 111.742188 154.605469 111.945312 154.246094 C 112.039062 154.128906 112.808594 153.65625 113.667969 153.152344 C 114.5 152.675781 117.648438 150.863281 120.617188 149.140625 L 125.984375 146.027344 L 127.117188 147.6875 C 128.6875 150.089844 132.136719 153.386719 134.210938 154.488281 C 140.179688 157.628906 148.367188 157.183594 152.40625 153.566406 C 154.128906 151.988281 154.839844 150.359375 154.839844 147.957031 C 154.839844 145.789062 154.574219 144.839844 153.445312 143.210938 C 151.988281 141.128906 149.023438 139.375 140.59375 135.730469 C 130.945312 131.574219 126.789062 128.988281 122.988281 124.890625 C 120.792969 122.515625 118.714844 118.714844 117.855469 115.539062 C 117.140625 112.902344 116.964844 106.285156 117.527344 103.609375 C 119.519531 94.289062 126.554688 87.789062 136.699219 85.859375 C 139.996094 85.238281 147.65625 85.472656 150.894531 86.277344 Z M 150.894531 86.277344 " fill-opacity="1" fill-rule="nonzero"/></svg>