<svg xmlns="http://www.w3.org/2000/svg" xmlns:xlink="http://www.w3.org/1999/xlink" width="250" zoomAndPan="magnify" viewBox="0 0 187.5 187.499992" height="250" preserveAspectRatio="xMidYMid meet" version="1.0"><defs><clipPath id="3e53cf7c40"><path d="M 15.996094 16 L 170.835938 16 L 170.835938 170.835938 L 15.996094 170.835938 Z M 15.996094 16 " clip-rule="nonzero"/></clipPath></defs><path fill="#ffffff" d="M 0 0 L 187 0 L 187 187 L 0 187 Z M 0 0 " fill-opacity="1" fill-rule="nonzero"/><path fill="#ffffff" d="M 0 0 L 187 0 L 187 187 L 0 187 Z M 0 0 " fill-opacity="1" fill-rule="nonzero"/><g clip-path="url(#3e53cf7c40)"><path fill="#000000" d="M 93.402344 16.011719 C 114.78125 16.011719 134.132812 24.675781 148.148438 38.683594 C 162.160156 52.695312 170.824219 72.046875 170.824219 93.429688 C 170.824219 114.804688 162.160156 134.160156 148.148438 148.171875 C 134.132812 162.1875 114.78125 170.847656 93.402344 170.847656 C 72.027344 170.847656 52.671875 162.183594 38.65625 148.171875 C 24.644531 134.164062 15.984375 114.804688 15.984375 93.429688 C 15.984375 72.050781 24.648438 52.695312 38.65625 38.683594 C 52.667969 24.671875 72.027344 16.011719 93.402344 16.011719 Z M 145.105469 41.726562 C 131.875 28.492188 113.597656 20.308594 93.402344 20.308594 C 73.210938 20.308594 54.933594 28.492188 41.699219 41.726562 C 28.46875 54.957031 20.285156 73.234375 20.285156 93.429688 C 20.285156 113.617188 28.46875 131.898438 41.699219 145.132812 C 54.933594 158.363281 73.210938 166.546875 93.402344 166.546875 C 113.59375 166.546875 131.875 158.363281 145.105469 145.132812 C 158.335938 131.898438 166.519531 113.621094 166.519531 93.429688 C 166.519531 73.238281 158.335938 54.957031 145.105469 41.726562 Z M 145.105469 41.726562 " fill-opacity="1" fill-rule="nonzero"/></g><path fill="#000000" d="M 91.691406 66.886719 C 91.691406 67.839844 92.460938 68.605469 93.410156 68.605469 C 94.359375 68.605469 95.128906 67.835938 95.128906 66.886719 L 95.128906 53.175781 C 95.128906 52.226562 94.359375 51.457031 93.410156 51.457031 C 92.457031 51.457031 91.691406 52.230469 91.691406 53.175781 Z M 91.691406 66.886719 " fill-opacity="1" fill-rule="nonzero"/><path fill="#000000" d="M 93.410156 54.898438 C 95.472656 54.898438 97.15625 53.210938 97.15625 51.148438 C 97.15625 49.082031 95.472656 47.398438 93.410156 47.398438 C 91.34375 47.398438 89.660156 49.082031 89.660156 51.148438 C 89.660156 53.210938 91.34375 54.898438 93.410156 54.898438 Z M 93.410156 54.898438 " fill-opacity="1" fill-rule="evenodd"/><path fill="#000000" d="M 76.722656 109.558594 C 79.800781 109.558594 82.3125 107.046875 82.3125 103.96875 C 82.3125 100.890625 79.804688 98.375 76.722656 98.375 C 73.640625 98.375 71.132812 100.886719 71.132812 103.96875 C 71.136719 107.046875 73.644531 109.558594 76.722656 109.558594 Z M 76.722656 109.558594 " fill-opacity="1" fill-rule="evenodd"/><path fill="#000000" d="M 110.046875 109.558594 C 113.125 109.558594 115.636719 107.046875 115.636719 103.96875 C 115.636719 100.890625 113.128906 98.375 110.046875 98.375 C 106.96875 98.375 104.457031 100.886719 104.457031 103.96875 C 104.460938 107.046875 106.96875 109.558594 110.046875 109.558594 Z M 110.046875 109.558594 " fill-opacity="1" fill-rule="evenodd"/><path fill="#000000" d="M 54.671875 93.855469 L 51.007812 93.855469 C 47.710938 93.855469 45.019531 96.546875 45.019531 99.839844 L 45.019531 107.199219 C 45.019531 110.492188 47.710938 113.1875 51.007812 113.1875 L 54.671875 113.1875 C 54.664062 112.917969 54.65625 112.652344 54.65625 112.382812 L 54.65625 94.65625 C 54.65625 94.390625 54.660156 94.121094 54.671875 93.855469 Z M 54.671875 93.855469 " fill-opacity="1" fill-rule="evenodd"/><path fill="#000000" d="M 65.21875 118.242188 C 63.621094 115.503906 62.882812 92.800781 65.21875 88.796875 L 121.597656 88.796875 C 123.523438 92.097656 123.523438 114.941406 121.597656 118.242188 Z M 106.777344 81.878906 L 62.6875 81.878906 C 59.355469 81.878906 56.605469 87.1875 56.402344 93.855469 C 56.394531 94.121094 56.390625 94.390625 56.390625 94.660156 L 56.390625 112.386719 C 56.390625 112.65625 56.394531 112.925781 56.402344 113.191406 C 56.609375 119.855469 59.351562 125.167969 62.6875 125.167969 L 68.320312 125.167969 L 69.285156 139.460938 L 81.914062 125.167969 L 124.136719 125.167969 C 127.472656 125.167969 130.21875 119.855469 130.421875 113.191406 C 130.429688 112.925781 130.433594 112.652344 130.433594 112.386719 L 130.433594 94.660156 C 130.433594 94.390625 130.429688 94.121094 130.421875 93.855469 C 130.214844 87.191406 127.46875 81.878906 124.136719 81.878906 Z M 106.777344 81.878906 " fill-opacity="1" fill-rule="evenodd"/><path fill="#000000" d="M 132.148438 113.1875 L 135.800781 113.1875 C 139.097656 113.1875 141.789062 110.492188 141.789062 107.199219 L 141.789062 99.839844 C 141.789062 96.546875 139.097656 93.855469 135.800781 93.855469 L 132.148438 93.855469 C 132.152344 94.121094 132.160156 94.390625 132.160156 94.660156 L 132.160156 112.386719 C 132.160156 112.652344 132.15625 112.917969 132.148438 113.1875 Z M 132.148438 113.1875 " fill-opacity="1" fill-rule="evenodd"/><path fill="#000000" d="M 106.777344 80.148438 L 106.777344 74.78125 C 106.777344 70.4375 103.050781 66.886719 98.496094 66.886719 L 88.320312 66.886719 C 83.765625 66.886719 80.042969 70.4375 80.042969 74.78125 L 80.042969 80.148438 Z M 106.777344 80.148438 " fill-opacity="1" fill-rule="evenodd"/></svg>