<svg width="125" height="126" viewBox="0 0 125 126" fill="none" xmlns="http://www.w3.org/2000/svg">
<g clip-path="url(#clip0_2_31)">
<g clip-path="url(#clip1_2_31)">
<g clip-path="url(#clip2_2_31)">
<path d="M29.062 42.726C44.839 52.996 60.443 63.268 78.149 70.035C86.448 73.205 98.024 75.37 104.388 67.327C108.155 62.566 106.221 57.305 103.387 52.661C99.121 45.673 91.717 45.316 84.369 46.244C64.255 48.783 42.384 65.288 48.36 88.116C50.327 95.629 58.62 105.024 67.05 105.437C70.718 105.615 73.598 104.048 77.088 103.642" stroke="#C6B9FF" stroke-width="34" stroke-linecap="round" stroke-linejoin="round"/>
<path d="M29.062 42.726C44.839 52.996 60.443 63.268 78.149 70.035C86.448 73.205 98.024 75.37 104.388 67.327C108.155 62.566 106.221 57.305 103.387 52.661C99.121 45.673 91.717 45.316 84.369 46.244C64.255 48.783 42.384 65.288 48.36 88.116C50.327 95.629 58.62 105.024 67.05 105.437C70.718 105.615 73.598 104.048 77.088 103.642" stroke="black" stroke-width="2.77" stroke-linecap="round" stroke-linejoin="round"/>
<path d="M25.556 37.953C28.381 35.852 32.376 36.437 34.479 39.26C36.581 42.083 35.996 46.075 33.171 48.176C30.346 50.277 26.351 49.692 24.249 46.869C22.146 44.046 22.731 40.055 25.556 37.953Z" fill="white" stroke="black" stroke-width="2.75" stroke-miterlimit="10"/>
<path d="M103.608 55.067C105.406 53.73 107.947 54.102 109.285 55.898C110.623 57.694 110.25 60.234 108.453 61.571C106.656 62.907 104.114 62.535 102.777 60.739C101.439 58.943 101.811 56.404 103.608 55.067Z" fill="white" stroke="black" stroke-width="2.75" stroke-miterlimit="10"/>
<path d="M72.749 98.514C75.211 96.683 78.693 97.193 80.526 99.653C82.359 102.114 81.849 105.593 79.386 107.425C76.924 109.256 73.442 108.746 71.609 106.286C69.777 103.825 70.287 100.346 72.749 98.514Z" fill="white" stroke="black" stroke-width="2.75" stroke-miterlimit="10"/>
</g>
</g>
</g>
<defs>
<clipPath id="clip0_2_31">
<rect width="124" height="125.09" fill="white" transform="translate(0.5)"/>
</clipPath>
<clipPath id="clip1_2_31">
<rect width="123" height="124" fill="white" transform="translate(0.5 0.0299988)"/>
</clipPath>
<clipPath id="clip2_2_31">
<rect width="123" height="124" fill="white" transform="translate(0.5 0.0299988)"/>
</clipPath>
</defs>
</svg>
